<?xml version="1.0" encoding="UTF-8"?><svg xmlns="http://www.w3.org/2000/svg" xmlns:xlink="http://www.w3.org/1999/xlink" width="30pt" zoomAndPan="magnify" viewBox="0 0 30 30.000001" height="30.000001pt" preserveAspectRatio="xMidYMid meet" version="1.2"><defs><clipPath xml:id="clip1" id="clip1"><path d="M 0.484375 0 L 29.515625 0 L 29.515625 29.03125 L 0.484375 29.03125 Z M 0.484375 0 "/></clipPath><clipPath xml:id="clip2" id="clip2"><path d="M 0.484375 0 L 29.515625 0 L 29.515625 29 L 0.484375 29 Z M 0.484375 0 "/></clipPath></defs><g xml:id="surface1" id="surface1"><g clip-rule="nonzero" clip-path="url(#clip1)"><path style=" stroke:none;fill-rule:nonzero;fill:rgb(100%,100%,100%);fill-opacity:1;" d="M 0.484375 0 L 29.515625 0 L 29.515625 137.902344 L 0.484375 137.902344 Z M 0.484375 0 "/><path style=" stroke:none;fill-rule:nonzero;fill:rgb(100%,100%,100%);fill-opacity:1;" d="M 0.484375 0 L 29.515625 0 L 29.515625 29.03125 L 0.484375 29.03125 Z M 0.484375 0 "/><path style=" stroke:none;fill-rule:nonzero;fill:rgb(100%,100%,100%);fill-opacity:1;" d="M 0.484375 0 L 29.515625 0 L 29.515625 29.03125 L 0.484375 29.03125 Z M 0.484375 0 "/></g><g clip-rule="nonzero" clip-path="url(#clip2)"><path style=" stroke:none;fill-rule:nonzero;fill:rgb(89.019775%,44.309998%,40.388489%);fill-opacity:1;" d="M 15 0.0742188 C 6.984375 0.0742188 0.484375 6.570312 0.484375 14.589844 C 0.484375 21.867188 5.84375 27.875 12.828125 28.925781 L 12.828125 18.433594 L 9.238281 18.433594 L 9.238281 14.621094 L 12.828125 14.621094 L 12.828125 12.082031 C 12.828125 7.875 14.878906 6.03125 18.371094 6.03125 C 20.046875 6.03125 20.929688 6.15625 21.347656 6.210938 L 21.347656 9.542969 L 18.964844 9.542969 C 17.480469 9.542969 16.964844 10.949219 16.964844 12.535156 L 16.964844 14.621094 L 21.3125 14.621094 L 20.722656 18.433594 L 16.964844 18.433594 L 16.964844 28.957031 C 24.050781 27.996094 29.515625 21.9375 29.515625 14.589844 C 29.515625 6.570312 23.015625 0.0742188 15 0.0742188 Z M 15 0.0742188 "/></g></g></svg>