<?xml version="1.0" encoding="UTF-8"?><svg xmlns="http://www.w3.org/2000/svg" xmlns:xlink="http://www.w3.org/1999/xlink" contentScriptType="text/ecmascript" width="30pt" zoomAndPan="magnify" contentStyleType="text/css" viewBox="0 0 30 30.000001" height="30.000001pt" preserveAspectRatio="xMidYMid meet" version="1.2"><defs><clipPath xml:id="clip1" id="clip1"><path d="M 0.484375 0 L 29.515625 0 L 29.515625 29.03125 L 0.484375 29.03125 Z M 0.484375 0 "/></clipPath><clipPath xml:id="clip2" id="clip2"><path d="M 0.484375 0 L 29.515625 0 L 29.515625 12 L 0.484375 12 Z M 0.484375 0 "/></clipPath><clipPath xml:id="clip3" id="clip3"><path d="M 3 9 L 27 9 L 27 29.03125 L 3 29.03125 Z M 3 9 "/></clipPath><clipPath xml:id="clip4" id="clip4"><path d="M 6 12 L 24 12 L 24 29.03125 L 6 29.03125 Z M 6 12 "/></clipPath></defs><g xml:id="surface1" id="surface1"><g clip-rule="nonzero" clip-path="url(#clip1)"><path style=" stroke:none;fill-rule:nonzero;fill:rgb(100%,100%,100%);fill-opacity:1;" d="M 0.484375 0 L 29.515625 0 L 29.515625 537.097656 L 0.484375 537.097656 Z M 0.484375 0 "/><path style=" stroke:none;fill-rule:nonzero;fill:rgb(100%,100%,100%);fill-opacity:1;" d="M 0.484375 0 L 29.515625 0 L 29.515625 29.03125 L 0.484375 29.03125 Z M 0.484375 0 "/><path style=" stroke:none;fill-rule:nonzero;fill:rgb(100%,100%,100%);fill-opacity:1;" d="M 0.484375 0 L 29.515625 0 L 29.515625 29.03125 L 0.484375 29.03125 Z M 0.484375 0 "/></g><g clip-rule="nonzero" clip-path="url(#clip2)"><path style=" stroke:none;fill-rule:nonzero;fill:rgb(0%,0%,0%);fill-opacity:1;" d="M 27.867188 11.410156 C 27.769531 11.410156 27.675781 11.386719 27.59375 11.335938 L 14.972656 3.574219 L 2.355469 11.335938 C 2.230469 11.410156 2.101562 11.429688 1.960938 11.398438 C 1.824219 11.363281 1.714844 11.285156 1.640625 11.164062 L 0.558594 9.40625 C 0.484375 9.28125 0.464844 9.152344 0.496094 9.011719 C 0.53125 8.875 0.609375 8.769531 0.730469 8.691406 L 14.703125 0.101562 C 14.882812 -0.0078125 15.0625 -0.0078125 15.246094 0.101562 L 29.21875 8.691406 C 29.339844 8.769531 29.417969 8.875 29.449219 9.011719 C 29.484375 9.152344 29.460938 9.28125 29.386719 9.40625 L 28.304688 11.164062 C 28.230469 11.285156 28.125 11.363281 27.984375 11.398438 C 27.945312 11.40625 27.90625 11.410156 27.867188 11.410156 Z M 1.714844 9.304688 L 2.253906 10.179688 L 14.703125 2.523438 C 14.882812 2.414062 15.066406 2.414062 15.246094 2.523438 L 27.695312 10.179688 L 28.234375 9.304688 L 14.972656 1.152344 Z M 1.714844 9.304688 "/></g><g clip-rule="nonzero" clip-path="url(#clip3)"><path style=" stroke:none;fill-rule:nonzero;fill:rgb(0%,0%,0%);fill-opacity:1;" d="M 26.359375 29.007812 L 3.589844 29.007812 C 3.445312 29.007812 3.324219 28.957031 3.222656 28.855469 C 3.121094 28.753906 3.070312 28.632812 3.070312 28.488281 L 3.070312 9.96875 C 3.070312 9.824219 3.121094 9.703125 3.222656 9.601562 C 3.324219 9.5 3.445312 9.449219 3.589844 9.449219 C 3.730469 9.449219 3.855469 9.5 3.953125 9.601562 C 4.054688 9.703125 4.105469 9.824219 4.105469 9.96875 L 4.105469 27.972656 L 25.84375 27.972656 L 25.84375 9.96875 C 25.84375 9.824219 25.890625 9.703125 25.992188 9.601562 C 26.09375 9.5 26.214844 9.449219 26.359375 9.449219 C 26.503906 9.449219 26.625 9.5 26.726562 9.601562 C 26.828125 9.703125 26.875 9.824219 26.875 9.96875 L 26.875 28.488281 C 26.875 28.632812 26.828125 28.753906 26.726562 28.855469 C 26.625 28.957031 26.503906 29.007812 26.359375 29.007812 Z M 26.359375 29.007812 "/></g><g clip-rule="nonzero" clip-path="url(#clip4)"><path style=" stroke:none;fill-rule:nonzero;fill:rgb(0%,0%,0%);fill-opacity:1;" d="M 23.253906 29.007812 L 6.695312 29.007812 C 6.550781 29.007812 6.429688 28.957031 6.328125 28.855469 C 6.226562 28.753906 6.175781 28.632812 6.175781 28.488281 L 6.175781 12.964844 C 6.175781 12.820312 6.226562 12.699219 6.328125 12.597656 C 6.429688 12.496094 6.550781 12.445312 6.695312 12.445312 L 23.253906 12.445312 C 23.398438 12.445312 23.519531 12.496094 23.621094 12.597656 C 23.722656 12.699219 23.773438 12.820312 23.773438 12.964844 L 23.773438 28.488281 C 23.773438 28.632812 23.722656 28.753906 23.621094 28.855469 C 23.519531 28.957031 23.398438 29.007812 23.253906 29.007812 Z M 7.210938 27.972656 L 22.738281 27.972656 L 22.738281 13.480469 L 7.210938 13.480469 Z M 7.210938 27.972656 "/></g><path style=" stroke:none;fill-rule:nonzero;fill:rgb(0%,0%,0%);fill-opacity:1;" d="M 23.253906 16.585938 L 6.695312 16.585938 C 6.550781 16.585938 6.429688 16.535156 6.328125 16.433594 C 6.226562 16.332031 6.175781 16.210938 6.175781 16.070312 C 6.175781 15.925781 6.226562 15.804688 6.328125 15.703125 C 6.429688 15.601562 6.550781 15.550781 6.695312 15.550781 L 23.253906 15.550781 C 23.398438 15.550781 23.519531 15.601562 23.621094 15.703125 C 23.722656 15.804688 23.773438 15.925781 23.773438 16.070312 C 23.773438 16.210938 23.722656 16.332031 23.621094 16.433594 C 23.519531 16.535156 23.398438 16.585938 23.253906 16.585938 Z M 23.253906 16.585938 "/><path style=" stroke:none;fill-rule:nonzero;fill:rgb(0%,0%,0%);fill-opacity:1;" d="M 23.253906 19.691406 L 6.695312 19.691406 C 6.550781 19.691406 6.429688 19.640625 6.328125 19.539062 C 6.226562 19.4375 6.175781 19.316406 6.175781 19.171875 C 6.175781 19.03125 6.226562 18.910156 6.328125 18.808594 C 6.429688 18.707031 6.550781 18.65625 6.695312 18.65625 L 23.253906 18.65625 C 23.398438 18.65625 23.519531 18.707031 23.621094 18.808594 C 23.722656 18.910156 23.773438 19.03125 23.773438 19.171875 C 23.773438 19.316406 23.722656 19.4375 23.621094 19.539062 C 23.519531 19.640625 23.398438 19.691406 23.253906 19.691406 Z M 23.253906 19.691406 "/><path style=" stroke:none;fill-rule:nonzero;fill:rgb(0%,0%,0%);fill-opacity:1;" d="M 23.253906 22.796875 L 6.695312 22.796875 C 6.550781 22.796875 6.429688 22.746094 6.328125 22.644531 C 6.226562 22.542969 6.175781 22.421875 6.175781 22.277344 C 6.175781 22.136719 6.226562 22.015625 6.328125 21.914062 C 6.429688 21.8125 6.550781 21.761719 6.695312 21.761719 L 23.253906 21.761719 C 23.398438 21.761719 23.519531 21.8125 23.621094 21.914062 C 23.722656 22.015625 23.773438 22.136719 23.773438 22.277344 C 23.773438 22.421875 23.722656 22.542969 23.621094 22.644531 C 23.519531 22.746094 23.398438 22.796875 23.253906 22.796875 Z M 23.253906 22.796875 "/><path style=" stroke:none;fill-rule:nonzero;fill:rgb(0%,0%,0%);fill-opacity:1;" d="M 23.253906 25.902344 L 6.695312 25.902344 C 6.550781 25.902344 6.429688 25.851562 6.328125 25.75 C 6.226562 25.648438 6.175781 25.527344 6.175781 25.382812 C 6.175781 25.242188 6.226562 25.117188 6.328125 25.019531 C 6.429688 24.917969 6.550781 24.867188 6.695312 24.867188 L 23.253906 24.867188 C 23.398438 24.867188 23.519531 24.917969 23.621094 25.019531 C 23.722656 25.117188 23.773438 25.242188 23.773438 25.382812 C 23.773438 25.527344 23.722656 25.648438 23.621094 25.75 C 23.519531 25.851562 23.398438 25.902344 23.253906 25.902344 Z M 23.253906 25.902344 "/><path style=" stroke:none;fill-rule:nonzero;fill:rgb(0%,0%,0%);fill-opacity:1;" d="M 17.042969 10.375 L 12.902344 10.375 C 12.761719 10.375 12.640625 10.324219 12.539062 10.222656 C 12.4375 10.125 12.386719 10 12.386719 9.859375 L 12.386719 7.789062 C 12.386719 7.644531 12.4375 7.523438 12.539062 7.421875 C 12.640625 7.320312 12.761719 7.269531 12.902344 7.269531 L 17.042969 7.269531 C 17.1875 7.269531 17.308594 7.320312 17.410156 7.421875 C 17.511719 7.523438 17.5625 7.644531 17.5625 7.789062 L 17.5625 9.859375 C 17.5625 10 17.511719 10.125 17.410156 10.222656 C 17.308594 10.324219 17.1875 10.375 17.042969 10.375 Z M 13.421875 9.339844 L 16.527344 9.339844 L 16.527344 8.304688 L 13.421875 8.304688 Z M 13.421875 9.339844 "/></g></svg>