<?xml version="1.0" encoding="UTF-8"?><svg xmlns="http://www.w3.org/2000/svg" xmlns:xlink="http://www.w3.org/1999/xlink" contentScriptType="text/ecmascript" width="30pt" zoomAndPan="magnify" contentStyleType="text/css" viewBox="0 0 30 30.000001" height="30.000001pt" preserveAspectRatio="xMidYMid meet" version="1.2"><defs><clipPath xml:id="clip1" id="clip1"><path d="M 0.484375 0 L 29.515625 0 L 29.515625 29.03125 L 0.484375 29.03125 Z M 0.484375 0 "/></clipPath></defs><g xml:id="surface1" id="surface1"><g clip-rule="nonzero" clip-path="url(#clip1)"><path style=" stroke:none;fill-rule:nonzero;fill:rgb(100%,100%,100%);fill-opacity:1;" d="M 0.484375 0 L 29.515625 0 L 29.515625 29.03125 L 0.484375 29.03125 Z M 0.484375 0 "/><path style=" stroke:none;fill-rule:nonzero;fill:rgb(100%,100%,100%);fill-opacity:1;" d="M 0.484375 0 L 29.515625 0 L 29.515625 29.03125 L 0.484375 29.03125 Z M 0.484375 0 "/><path style=" stroke:none;fill-rule:nonzero;fill:rgb(0%,0%,0%);fill-opacity:1;" d="M 20.152344 15.921875 C 20.152344 17.46875 18.890625 18.730469 17.339844 18.730469 C 15.792969 18.730469 14.53125 17.46875 14.53125 15.921875 C 14.53125 15.21875 14.789062 14.5625 15.25 14.046875 L 19.433594 14.046875 C 19.894531 14.5625 20.152344 15.21875 20.152344 15.921875 Z M 19.683594 22.945312 L 25.769531 22.945312 L 25.769531 24.816406 L 18.746094 24.816406 C 17.453125 24.816406 16.40625 23.769531 16.40625 22.476562 L 16.40625 19.542969 C 16.703125 19.621094 17.015625 19.667969 17.339844 19.667969 C 17.664062 19.667969 17.976562 19.621094 18.277344 19.542969 L 18.277344 21.539062 C 18.277344 22.316406 18.90625 22.945312 19.683594 22.945312 Z M 26.707031 22.007812 C 26.707031 20.878906 27.511719 19.933594 28.578125 19.714844 L 28.578125 28.046875 C 27.511719 27.832031 26.707031 26.886719 26.707031 25.753906 Z M 4.230469 7.023438 C 4.230469 5.628906 4.394531 4.289062 4.683594 3.203125 C 4.992188 3.785156 5.167969 4.449219 5.167969 5.152344 L 5.167969 6.554688 L 7.964844 6.554688 C 7.96875 6.710938 7.976562 6.863281 7.976562 7.023438 C 7.976562 10.738281 6.867188 13.113281 6.101562 13.113281 C 5.339844 13.113281 4.230469 10.738281 4.230469 7.023438 Z M 1.449219 0.964844 C 2.449219 1.085938 3.34375 1.554688 4.003906 2.25 C 3.808594 2.800781 3.648438 3.433594 3.53125 4.121094 C 2.378906 3.457031 1.605469 2.289062 1.449219 0.964844 Z M 19.214844 0.9375 L 19.214844 3.277344 C 19.214844 4.054688 19.84375 4.683594 20.621094 4.683594 L 28.578125 4.683594 L 28.578125 7.492188 L 13.320312 7.492188 L 11.449219 5.621094 L 6.101562 5.621094 L 6.101562 5.152344 C 6.101562 3.410156 5.234375 1.871094 3.910156 0.9375 Z M 28.542969 3.746094 L 20.621094 3.746094 C 20.359375 3.746094 20.152344 3.535156 20.152344 3.277344 L 20.152344 0.9375 L 25.300781 0.9375 C 26.949219 0.9375 28.3125 2.160156 28.542969 3.746094 Z M 27.644531 10.769531 C 27.644531 12.0625 26.59375 13.113281 25.300781 13.113281 L 7.558594 13.113281 C 8.445312 11.816406 8.914062 9.367188 8.914062 7.023438 C 8.914062 6.863281 8.90625 6.714844 8.898438 6.554688 L 11.058594 6.554688 L 12.933594 8.429688 L 27.644531 8.429688 Z M 28.578125 10.769531 L 28.578125 8.429688 L 29.515625 8.429688 L 29.515625 4.214844 C 29.515625 1.890625 27.625 0 25.300781 0 L 0.484375 0 L 0.484375 0.46875 C 0.484375 2.457031 1.621094 4.25 3.394531 5.105469 C 3.328125 5.722656 3.292969 6.367188 3.292969 7.023438 C 3.292969 10.429688 4.277344 14.046875 6.101562 14.046875 L 14.101562 14.046875 C 13.773438 14.609375 13.59375 15.25 13.59375 15.921875 C 13.59375 17.304688 14.351562 18.511719 15.46875 19.160156 L 15.46875 22.476562 C 15.46875 24.285156 16.9375 25.753906 18.746094 25.753906 L 25.769531 25.753906 C 25.769531 27.5625 27.242188 29.03125 29.046875 29.03125 L 29.515625 29.03125 L 29.515625 18.730469 L 29.046875 18.730469 C 27.242188 18.730469 25.769531 20.199219 25.769531 22.007812 L 19.683594 22.007812 C 19.425781 22.007812 19.214844 21.796875 19.214844 21.539062 L 19.214844 19.160156 C 20.332031 18.511719 21.085938 17.304688 21.085938 15.921875 C 21.085938 15.25 20.910156 14.609375 20.582031 14.046875 L 25.300781 14.046875 C 27.109375 14.046875 28.578125 12.578125 28.578125 10.769531 "/></g><path style=" stroke:none;fill-rule:nonzero;fill:rgb(0%,0%,0%);fill-opacity:1;" d="M 17.339844 14.984375 C 17.855469 14.984375 18.277344 15.40625 18.277344 15.921875 C 18.277344 16.4375 17.855469 16.859375 17.339844 16.859375 C 16.824219 16.859375 16.40625 16.4375 16.40625 15.921875 C 16.40625 15.40625 16.824219 14.984375 17.339844 14.984375 Z M 15.46875 15.921875 C 15.46875 16.953125 16.308594 17.792969 17.339844 17.792969 C 18.375 17.792969 19.214844 16.953125 19.214844 15.921875 C 19.214844 14.886719 18.375 14.046875 17.339844 14.046875 C 16.308594 14.046875 15.46875 14.886719 15.46875 15.921875 "/><path style=" stroke:none;fill-rule:nonzero;fill:rgb(0%,0%,0%);fill-opacity:1;" d="M 22.023438 1.875 L 21.085938 1.875 L 21.085938 2.808594 L 22.023438 2.808594 L 22.023438 1.875 "/><path style=" stroke:none;fill-rule:nonzero;fill:rgb(0%,0%,0%);fill-opacity:1;" d="M 23.898438 1.875 L 22.960938 1.875 L 22.960938 2.808594 L 23.898438 2.808594 L 23.898438 1.875 "/><path style=" stroke:none;fill-rule:nonzero;fill:rgb(0%,0%,0%);fill-opacity:1;" d="M 25.769531 1.875 L 24.832031 1.875 L 24.832031 2.808594 L 25.769531 2.808594 L 25.769531 1.875 "/><path style=" stroke:none;fill-rule:nonzero;fill:rgb(0%,0%,0%);fill-opacity:1;" d="M 7.976562 3.746094 L 7.039062 3.746094 L 7.039062 4.683594 L 7.976562 4.683594 L 7.976562 3.746094 "/><path style=" stroke:none;fill-rule:nonzero;fill:rgb(0%,0%,0%);fill-opacity:1;" d="M 9.847656 3.746094 L 8.914062 3.746094 L 8.914062 4.683594 L 9.847656 4.683594 L 9.847656 3.746094 "/><path style=" stroke:none;fill-rule:nonzero;fill:rgb(0%,0%,0%);fill-opacity:1;" d="M 11.722656 3.746094 L 10.785156 3.746094 L 10.785156 4.683594 L 11.722656 4.683594 L 11.722656 3.746094 "/><path style=" stroke:none;fill-rule:nonzero;fill:rgb(0%,0%,0%);fill-opacity:1;" d="M 20.621094 9.367188 L 19.683594 9.367188 L 19.683594 10.300781 L 20.621094 10.300781 L 20.621094 9.367188 "/><path style=" stroke:none;fill-rule:nonzero;fill:rgb(0%,0%,0%);fill-opacity:1;" d="M 18.746094 9.367188 L 17.808594 9.367188 L 17.808594 10.300781 L 18.746094 10.300781 L 18.746094 9.367188 "/><path style=" stroke:none;fill-rule:nonzero;fill:rgb(0%,0%,0%);fill-opacity:1;" d="M 16.875 9.367188 L 15.9375 9.367188 L 15.9375 10.300781 L 16.875 10.300781 L 16.875 9.367188 "/></g></svg>