<?xml version="1.0" encoding="UTF-8"?><svg xmlns="http://www.w3.org/2000/svg" xmlns:xlink="http://www.w3.org/1999/xlink" contentScriptType="text/ecmascript" width="30pt" zoomAndPan="magnify" contentStyleType="text/css" viewBox="0 0 30 30.000001" height="30.000001pt" preserveAspectRatio="xMidYMid meet" version="1.2"><defs><clipPath xml:id="clip1" id="clip1"><path d="M 0.484375 0 L 29.515625 0 L 29.515625 29.03125 L 0.484375 29.03125 Z M 0.484375 0 "/></clipPath><clipPath xml:id="clip2" id="clip2"><path d="M 2.242188 0 L 27.546875 0 L 27.546875 29.03125 L 2.242188 29.03125 Z M 2.242188 0 "/></clipPath><clipPath xml:id="clip3" id="clip3"><path d="M 2.242188 4 L 27.546875 4 L 27.546875 6 L 2.242188 6 Z M 2.242188 4 "/></clipPath><clipPath xml:id="clip4" id="clip4"><path d="M 2.242188 2 L 14 2 L 14 6 L 2.242188 6 Z M 2.242188 2 "/></clipPath></defs><g xml:id="surface1" id="surface1"><g clip-rule="nonzero" clip-path="url(#clip1)"><path style=" stroke:none;fill-rule:nonzero;fill:rgb(100%,100%,100%);fill-opacity:1;" d="M 0.484375 0 L 29.515625 0 L 29.515625 29.03125 L 0.484375 29.03125 Z M 0.484375 0 "/><path style=" stroke:none;fill-rule:nonzero;fill:rgb(100%,100%,100%);fill-opacity:1;" d="M 0.484375 0 L 29.515625 0 L 29.515625 29.03125 L 0.484375 29.03125 Z M 0.484375 0 "/></g><g clip-rule="nonzero" clip-path="url(#clip2)"><path style=" stroke:none;fill-rule:nonzero;fill:rgb(6.269836%,5.879211%,5.099487%);fill-opacity:1;" d="M 2.980469 28.296875 L 26.8125 28.296875 L 26.8125 0.734375 L 2.980469 0.734375 Z M 27.539062 29.03125 L 2.25 29.03125 L 2.25 0 L 27.539062 0 L 27.539062 29.03125 "/></g><path style=" stroke:none;fill-rule:nonzero;fill:rgb(6.269836%,5.879211%,5.099487%);fill-opacity:1;" d="M 14.949219 9.222656 C 10.796875 9.222656 7.417969 12.628906 7.417969 16.816406 C 7.417969 21 10.796875 24.40625 14.949219 24.40625 C 19.101562 24.40625 22.480469 21 22.480469 16.816406 C 22.480469 12.628906 19.101562 9.222656 14.949219 9.222656 Z M 14.949219 25.140625 C 10.394531 25.140625 6.6875 21.40625 6.6875 16.816406 C 6.6875 12.222656 10.394531 8.488281 14.949219 8.488281 C 19.503906 8.488281 23.207031 12.222656 23.207031 16.816406 C 23.207031 21.40625 19.503906 25.140625 14.949219 25.140625 "/><path style=" stroke:none;fill-rule:nonzero;fill:rgb(6.269836%,5.879211%,5.099487%);fill-opacity:1;" d="M 14.949219 11.875 C 12.246094 11.875 10.050781 14.089844 10.050781 16.816406 C 10.050781 19.539062 12.246094 21.753906 14.949219 21.753906 C 17.648438 21.753906 19.847656 19.539062 19.847656 16.816406 C 19.847656 14.089844 17.648438 11.875 14.949219 11.875 Z M 14.949219 22.488281 C 11.84375 22.488281 9.320312 19.941406 9.320312 16.816406 C 9.320312 13.6875 11.84375 11.140625 14.949219 11.140625 C 18.050781 11.140625 20.574219 13.6875 20.574219 16.816406 C 20.574219 19.941406 18.050781 22.488281 14.949219 22.488281 "/><path style=" stroke:none;fill-rule:nonzero;fill:rgb(6.269836%,5.879211%,5.099487%);fill-opacity:1;" d="M 22.84375 2.058594 C 22.464844 2.058594 22.15625 2.367188 22.15625 2.75 C 22.15625 3.132812 22.464844 3.445312 22.84375 3.445312 C 23.222656 3.445312 23.53125 3.132812 23.53125 2.75 C 23.53125 2.367188 23.222656 2.058594 22.84375 2.058594 Z M 22.84375 4.179688 C 22.0625 4.179688 21.425781 3.539062 21.425781 2.75 C 21.425781 1.964844 22.0625 1.324219 22.84375 1.324219 C 23.625 1.324219 24.261719 1.964844 24.261719 2.75 C 24.261719 3.539062 23.625 4.179688 22.84375 4.179688 "/><path style=" stroke:none;fill-rule:nonzero;fill:rgb(6.269836%,5.879211%,5.099487%);fill-opacity:1;" d="M 18.71875 2.058594 C 18.339844 2.058594 18.03125 2.367188 18.03125 2.75 C 18.03125 3.132812 18.339844 3.445312 18.71875 3.445312 C 19.097656 3.445312 19.40625 3.132812 19.40625 2.75 C 19.40625 2.367188 19.097656 2.058594 18.71875 2.058594 Z M 18.71875 4.179688 C 17.9375 4.179688 17.300781 3.539062 17.300781 2.75 C 17.300781 1.964844 17.9375 1.324219 18.71875 1.324219 C 19.5 1.324219 20.136719 1.964844 20.136719 2.75 C 20.136719 3.539062 19.5 4.179688 18.71875 4.179688 "/><g clip-rule="nonzero" clip-path="url(#clip3)"><path style=" stroke:none;fill-rule:nonzero;fill:rgb(6.269836%,5.879211%,5.099487%);fill-opacity:1;" d="M 27.175781 5.199219 L 2.613281 5.199219 L 2.613281 4.464844 L 27.175781 4.464844 L 27.175781 5.199219 "/></g><g clip-rule="nonzero" clip-path="url(#clip4)"><path style=" stroke:none;fill-rule:nonzero;fill:rgb(6.269836%,5.879211%,5.099487%);fill-opacity:1;" d="M 13.660156 5.136719 L 12.929688 5.136719 L 12.929688 2.851562 L 2.769531 2.851562 L 2.769531 2.117188 L 13.660156 2.117188 L 13.660156 5.136719 "/></g></g></svg>