<?xml version="1.0" encoding="UTF-8"?><svg xmlns="http://www.w3.org/2000/svg" xmlns:xlink="http://www.w3.org/1999/xlink" contentScriptType="text/ecmascript" width="30pt" zoomAndPan="magnify" contentStyleType="text/css" viewBox="0 0 30 30.000001" height="30.000001pt" preserveAspectRatio="xMidYMid meet" version="1.2"><defs><clipPath xml:id="clip1" id="clip1"><path d="M 0.484375 0 L 29.515625 0 L 29.515625 29.03125 L 0.484375 29.03125 Z M 0.484375 0 "/></clipPath><clipPath xml:id="clip2" id="clip2"><path d="M 11.089844 10.609375 L 20 10.609375 L 20 18 L 11.089844 18 Z M 11.089844 10.609375 "/></clipPath><clipPath xml:id="clip3" id="clip3"><path d="M 11.089844 15 L 28.96875 15 L 28.96875 28.484375 L 11.089844 28.484375 Z M 11.089844 15 "/></clipPath><clipPath xml:id="clip4" id="clip4"><path d="M 20 10.609375 L 28.96875 10.609375 L 28.96875 16 L 20 16 Z M 20 10.609375 "/></clipPath><clipPath xml:id="clip5" id="clip5"><path d="M 0.484375 7.921875 L 11.371094 7.921875 L 11.371094 28.914062 L 0.484375 28.914062 Z M 0.484375 7.921875 "/></clipPath></defs><g xml:id="surface1" id="surface1"><g clip-rule="nonzero" clip-path="url(#clip1)"><path style=" stroke:none;fill-rule:nonzero;fill:rgb(100%,100%,100%);fill-opacity:1;" d="M 0.484375 0 L 29.515625 0 L 29.515625 29.03125 L 0.484375 29.03125 Z M 0.484375 0 "/><path style=" stroke:none;fill-rule:nonzero;fill:rgb(100%,100%,100%);fill-opacity:1;" d="M 0.484375 0 L 29.515625 0 L 29.515625 29.03125 L 0.484375 29.03125 Z M 0.484375 0 "/></g><g clip-rule="nonzero" clip-path="url(#clip2)"><path style=" stroke:none;fill-rule:nonzero;fill:rgb(0%,0%,0%);fill-opacity:1;" d="M 11.6875 15.078125 L 12.621094 15.078125 L 12.59375 15.117188 C 12.480469 15.289062 12.453125 15.5 12.519531 15.695312 C 12.585938 15.890625 12.738281 16.039062 12.933594 16.105469 C 12.957031 16.113281 12.96875 16.128906 12.972656 16.144531 C 12.976562 16.15625 12.980469 16.175781 12.964844 16.199219 L 12.632812 16.699219 L 13.128906 17.03125 L 13.460938 16.527344 C 13.578125 16.355469 13.605469 16.144531 13.535156 15.949219 C 13.46875 15.753906 13.320312 15.605469 13.121094 15.539062 C 13.097656 15.53125 13.089844 15.515625 13.082031 15.5 C 13.078125 15.488281 13.078125 15.46875 13.089844 15.445312 L 13.335938 15.078125 L 13.910156 15.078125 L 13.882812 15.117188 C 13.769531 15.289062 13.742188 15.5 13.808594 15.695312 C 13.875 15.890625 14.027344 16.039062 14.222656 16.105469 C 14.246094 16.113281 14.257812 16.128906 14.261719 16.144531 C 14.265625 16.15625 14.269531 16.175781 14.253906 16.199219 L 13.921875 16.699219 L 14.417969 17.03125 L 14.75 16.527344 C 14.867188 16.355469 14.894531 16.144531 14.824219 15.949219 C 14.757812 15.753906 14.609375 15.605469 14.410156 15.539062 C 14.386719 15.53125 14.378906 15.515625 14.371094 15.5 C 14.367188 15.488281 14.367188 15.46875 14.378906 15.445312 L 14.625 15.078125 L 19.433594 15.078125 C 19.542969 15.078125 19.640625 15.019531 19.695312 14.921875 C 19.746094 14.828125 19.746094 14.714844 19.6875 14.621094 L 18.242188 12.308594 L 18.242188 10.90625 C 18.242188 10.742188 18.109375 10.609375 17.945312 10.609375 L 13.175781 10.609375 C 13.011719 10.609375 12.878906 10.742188 12.878906 10.90625 L 12.878906 12.308594 L 11.433594 14.621094 C 11.378906 14.714844 11.375 14.828125 11.425781 14.921875 C 11.480469 15.019531 11.578125 15.078125 11.6875 15.078125 Z M 13.476562 11.203125 L 17.648438 11.203125 L 17.648438 12.097656 L 13.476562 12.097656 Z M 13.34375 12.695312 L 17.78125 12.695312 L 18.894531 14.480469 L 12.226562 14.480469 Z M 13.34375 12.695312 "/></g><g clip-rule="nonzero" clip-path="url(#clip3)"><path style=" stroke:none;fill-rule:nonzero;fill:rgb(0%,0%,0%);fill-opacity:1;" d="M 28.671875 18.949219 L 22.117188 18.949219 L 22.117188 16.566406 C 22.117188 16.238281 22.382812 15.972656 22.710938 15.972656 C 23.039062 15.972656 23.308594 16.238281 23.308594 16.566406 L 23.007812 16.566406 L 23.007812 17.164062 L 24.203125 17.164062 L 24.203125 16.566406 L 23.902344 16.566406 C 23.902344 15.910156 23.367188 15.375 22.710938 15.375 C 22.054688 15.375 21.519531 15.910156 21.519531 16.566406 L 21.519531 18.949219 L 18.839844 18.949219 L 18.839844 18.355469 L 18.242188 18.355469 L 18.242188 18.949219 L 17.050781 18.949219 L 17.050781 18.355469 L 16.453125 18.355469 L 16.453125 18.949219 L 14.667969 18.949219 L 14.667969 18.652344 L 14.816406 18.652344 C 15.175781 18.652344 15.476562 18.394531 15.546875 18.054688 L 16.453125 18.054688 L 16.453125 17.460938 L 15.40625 17.460938 C 15.273438 17.28125 15.058594 17.164062 14.816406 17.164062 L 12.132812 17.164062 C 11.722656 17.164062 11.390625 17.496094 11.390625 17.90625 C 11.390625 18.316406 11.722656 18.652344 12.132812 18.652344 L 12.285156 18.652344 L 12.285156 18.949219 L 11.390625 18.949219 C 11.226562 18.949219 11.089844 19.082031 11.089844 19.25 L 11.089844 28.1875 C 11.089844 28.351562 11.226562 28.484375 11.390625 28.484375 L 28.671875 28.484375 C 28.835938 28.484375 28.96875 28.351562 28.96875 28.1875 L 28.96875 19.25 C 28.96875 19.082031 28.835938 18.949219 28.671875 18.949219 Z M 20.03125 20.738281 L 28.371094 20.738281 L 28.371094 25.503906 L 20.03125 25.503906 Z M 28.371094 19.546875 L 28.371094 20.140625 L 20.03125 20.140625 L 20.03125 19.546875 Z M 11.984375 17.90625 C 11.984375 17.824219 12.050781 17.757812 12.132812 17.757812 L 14.816406 17.757812 C 14.898438 17.757812 14.964844 17.824219 14.964844 17.90625 C 14.964844 17.988281 14.898438 18.054688 14.816406 18.054688 L 12.132812 18.054688 C 12.050781 18.054688 11.984375 17.988281 11.984375 17.90625 Z M 12.878906 18.652344 L 14.070312 18.652344 L 14.070312 18.949219 L 12.878906 18.949219 Z M 11.6875 19.546875 L 19.433594 19.546875 L 19.433594 20.140625 L 11.6875 20.140625 Z M 11.6875 20.738281 L 19.433594 20.738281 L 19.433594 27.890625 L 11.6875 27.890625 Z M 20.03125 27.890625 L 20.03125 26.101562 L 28.371094 26.101562 L 28.371094 27.890625 Z M 20.03125 27.890625 "/></g><path style=" stroke:none;fill-rule:nonzero;fill:rgb(0%,0%,0%);fill-opacity:1;" d="M 27.480469 21.035156 L 20.925781 21.035156 C 20.757812 21.035156 20.625 21.167969 20.625 21.332031 L 20.625 24.910156 C 20.625 25.074219 20.757812 25.207031 20.925781 25.207031 L 27.480469 25.207031 C 27.644531 25.207031 27.777344 25.074219 27.777344 24.910156 L 27.777344 21.332031 C 27.777344 21.167969 27.644531 21.035156 27.480469 21.035156 Z M 21.222656 21.632812 L 25.09375 21.632812 L 25.09375 24.613281 L 21.222656 24.613281 Z M 27.179688 24.613281 L 25.691406 24.613281 L 25.691406 21.632812 L 27.179688 21.632812 Z M 27.179688 24.613281 "/><path style=" stroke:none;fill-rule:nonzero;fill:rgb(0%,0%,0%);fill-opacity:1;" d="M 25.988281 22.226562 L 26.585938 22.226562 L 26.585938 22.824219 L 25.988281 22.824219 Z M 25.988281 22.226562 "/><path style=" stroke:none;fill-rule:nonzero;fill:rgb(0%,0%,0%);fill-opacity:1;" d="M 25.988281 23.417969 L 26.585938 23.417969 L 26.585938 24.015625 L 25.988281 24.015625 Z M 25.988281 23.417969 "/><path style=" stroke:none;fill-rule:nonzero;fill:rgb(0%,0%,0%);fill-opacity:1;" d="M 24.5 21.929688 L 21.816406 21.929688 C 21.652344 21.929688 21.519531 22.0625 21.519531 22.226562 L 21.519531 24.015625 C 21.519531 24.179688 21.652344 24.3125 21.816406 24.3125 L 24.5 24.3125 C 24.664062 24.3125 24.796875 24.179688 24.796875 24.015625 L 24.796875 22.226562 C 24.796875 22.0625 24.664062 21.929688 24.5 21.929688 Z M 24.203125 23.71875 L 22.117188 23.71875 L 22.117188 22.527344 L 24.203125 22.527344 Z M 24.203125 23.71875 "/><g clip-rule="nonzero" clip-path="url(#clip4)"><path style=" stroke:none;fill-rule:nonzero;fill:rgb(0%,0%,0%);fill-opacity:1;" d="M 20.625 15.078125 L 28.371094 15.078125 C 28.539062 15.078125 28.671875 14.945312 28.671875 14.777344 L 28.671875 10.90625 C 28.671875 10.742188 28.539062 10.609375 28.371094 10.609375 L 20.625 10.609375 C 20.460938 10.609375 20.328125 10.742188 20.328125 10.90625 L 20.328125 14.777344 C 20.328125 14.945312 20.460938 15.078125 20.625 15.078125 Z M 22.710938 13.289062 L 22.710938 14.480469 L 22.117188 14.480469 L 22.117188 13.289062 Z M 25.09375 14.480469 L 24.5 14.480469 L 24.5 12.394531 L 25.09375 12.394531 Z M 26.882812 12.992188 C 27.046875 12.992188 27.179688 13.125 27.179688 13.289062 L 27.179688 14.480469 L 26.585938 14.480469 L 26.585938 13.289062 C 26.585938 13.125 26.71875 12.992188 26.882812 12.992188 Z M 20.925781 11.203125 L 28.074219 11.203125 L 28.074219 14.480469 L 27.777344 14.480469 L 27.777344 13.289062 C 27.777344 12.902344 27.527344 12.574219 27.179688 12.449219 L 27.179688 11.5 L 26.585938 11.5 L 26.585938 12.449219 C 26.238281 12.574219 25.988281 12.902344 25.988281 13.289062 L 25.988281 14.480469 L 25.691406 14.480469 L 25.691406 12.097656 C 25.691406 11.933594 25.558594 11.800781 25.394531 11.800781 L 24.203125 11.800781 C 24.035156 11.800781 23.902344 11.933594 23.902344 12.097656 L 23.902344 14.480469 L 23.308594 14.480469 L 23.308594 13.289062 L 23.605469 13.289062 L 23.605469 12.695312 L 22.710938 12.695312 L 22.710938 12.097656 L 22.117188 12.097656 L 22.117188 12.695312 L 21.222656 12.695312 L 21.222656 13.289062 L 21.519531 13.289062 L 21.519531 14.480469 L 20.925781 14.480469 Z M 20.925781 11.203125 "/></g><path style=" stroke:none;fill-rule:nonzero;fill:rgb(0%,0%,0%);fill-opacity:1;" d="M 13.476562 13.585938 L 14.070312 13.585938 L 14.070312 14.183594 L 13.476562 14.183594 Z M 13.476562 13.585938 "/><path style=" stroke:none;fill-rule:nonzero;fill:rgb(0%,0%,0%);fill-opacity:1;" d="M 14.667969 13.585938 L 15.261719 13.585938 L 15.261719 14.183594 L 14.667969 14.183594 Z M 14.667969 13.585938 "/><path style=" stroke:none;fill-rule:nonzero;fill:rgb(0%,0%,0%);fill-opacity:1;" d="M 18.539062 22.226562 L 12.582031 22.226562 C 12.417969 22.226562 12.285156 22.359375 12.285156 22.527344 L 12.285156 26.996094 C 12.285156 27.160156 12.417969 27.292969 12.582031 27.292969 L 18.539062 27.292969 C 18.707031 27.292969 18.839844 27.160156 18.839844 26.996094 L 18.839844 22.527344 C 18.839844 22.359375 18.707031 22.226562 18.539062 22.226562 Z M 18.242188 26.695312 L 12.878906 26.695312 L 12.878906 22.824219 L 18.242188 22.824219 Z M 18.242188 26.695312 "/><path style=" stroke:none;fill-rule:nonzero;fill:rgb(0%,0%,0%);fill-opacity:1;" d="M 13.476562 21.332031 L 17.945312 21.332031 L 17.945312 21.929688 L 13.476562 21.929688 Z M 13.476562 21.332031 "/><g clip-rule="nonzero" clip-path="url(#clip5)"><path style=" stroke:none;fill-rule:nonzero;fill:rgb(0%,0%,0%);fill-opacity:1;" d="M 10.871094 7.921875 L 1.273438 7.921875 C 0.839844 7.921875 0.488281 8.253906 0.488281 8.664062 L 0.488281 27.300781 C 0.488281 27.710938 0.839844 28.042969 1.273438 28.042969 L 1.691406 28.042969 L 1.691406 28.726562 C 1.695312 28.832031 1.78125 28.914062 1.894531 28.914062 L 2.277344 28.914062 C 2.390625 28.914062 2.476562 28.832031 2.480469 28.726562 L 2.480469 28.042969 L 9.605469 28.042969 L 9.605469 28.726562 C 9.605469 28.828125 9.695312 28.914062 9.800781 28.914062 L 10.191406 28.914062 C 10.304688 28.914062 10.390625 28.832031 10.394531 28.726562 L 10.394531 28.042969 L 10.871094 28.042969 C 11.300781 28.042969 11.652344 27.710938 11.65625 27.300781 L 11.65625 8.664062 C 11.652344 8.253906 11.300781 7.921875 10.871094 7.921875 Z M 11.144531 27.300781 C 11.140625 27.441406 11.019531 27.554688 10.871094 27.554688 L 1.273438 27.554688 C 1.121094 27.554688 1.003906 27.441406 1.003906 27.300781 L 1.003906 15.140625 L 2.585938 15.140625 L 2.585938 15.648438 C 2.585938 15.917969 2.820312 16.136719 3.105469 16.136719 L 9.339844 16.136719 C 9.625 16.136719 9.859375 15.917969 9.863281 15.648438 L 9.863281 15.140625 L 11.144531 15.140625 Z M 9.347656 15.140625 L 9.347656 15.648438 L 3.101562 15.648438 L 3.101562 15.140625 Z M 3.101562 14.65625 L 3.101562 14.4375 L 9.347656 14.4375 L 9.347656 14.65625 Z M 11.144531 14.65625 L 9.863281 14.65625 L 9.863281 14.4375 C 9.859375 14.167969 9.625 13.949219 9.339844 13.949219 L 3.105469 13.949219 C 2.820312 13.949219 2.585938 14.167969 2.585938 14.4375 L 2.585938 14.65625 L 1.003906 14.65625 L 1.003906 8.664062 C 1.003906 8.519531 1.121094 8.40625 1.273438 8.40625 L 10.871094 8.40625 C 11.019531 8.40625 11.140625 8.519531 11.144531 8.664062 Z M 11.144531 14.65625 "/></g></g></svg>