<?xml version="1.0" encoding="UTF-8"?><svg xmlns="http://www.w3.org/2000/svg" xmlns:xlink="http://www.w3.org/1999/xlink" contentScriptType="text/ecmascript" width="30pt" zoomAndPan="magnify" contentStyleType="text/css" viewBox="0 0 30 30.000001" height="30.000001pt" preserveAspectRatio="xMidYMid meet" version="1.2"><defs><clipPath xml:id="clip1" id="clip1"><path d="M 0.484375 0 L 29.515625 0 L 29.515625 29.03125 L 0.484375 29.03125 Z M 0.484375 0 "/></clipPath></defs><g xml:id="surface1" id="surface1"><g clip-rule="nonzero" clip-path="url(#clip1)"><path style=" stroke:none;fill-rule:nonzero;fill:rgb(100%,100%,100%);fill-opacity:1;" d="M 0.484375 0 L 29.515625 0 L 29.515625 29.03125 L 0.484375 29.03125 Z M 0.484375 0 "/><path style=" stroke:none;fill-rule:nonzero;fill:rgb(100%,100%,100%);fill-opacity:1;" d="M 0.484375 0 L 29.515625 0 L 29.515625 29.03125 L 0.484375 29.03125 Z M 0.484375 0 "/><path style=" stroke:none;fill-rule:nonzero;fill:rgb(13.729858%,12.159729%,12.548828%);fill-opacity:1;" d="M 25.691406 29.03125 C 26.714844 29.03125 27.675781 28.636719 28.398438 27.914062 C 29.117188 27.191406 29.515625 26.230469 29.515625 25.210938 L 29.515625 3.824219 C 29.515625 2.800781 29.117188 1.84375 28.398438 1.121094 C 27.675781 0.398438 26.714844 0 25.691406 0 L 4.308594 0 C 2.199219 0 0.484375 1.714844 0.484375 3.824219 L 0.484375 25.210938 C 0.484375 26.230469 0.882812 27.191406 1.605469 27.914062 C 2.324219 28.636719 3.285156 29.03125 4.308594 29.03125 L 25.691406 29.03125 "/></g><path style=" stroke:none;fill-rule:nonzero;fill:rgb(100%,100%,100%);fill-opacity:1;" d="M 16.707031 14.085938 C 18.320312 14.085938 19.628906 12.777344 19.628906 11.164062 C 19.628906 9.550781 18.320312 8.242188 16.707031 8.242188 L 12.402344 8.234375 L 12.402344 14.085938 Z M 16.648438 4.640625 C 20.296875 4.640625 23.25 7.59375 23.25 11.242188 C 23.25 14.886719 20.296875 17.839844 16.648438 17.839844 L 12.402344 17.839844 L 12.402344 24.101562 L 8.601562 24.101562 L 8.601562 4.644531 Z M 4.308594 28.101562 L 25.691406 28.101562 C 27.289062 28.101562 28.585938 26.804688 28.585938 25.210938 L 28.585938 3.824219 C 28.585938 3.050781 28.285156 2.324219 27.738281 1.777344 C 27.191406 1.230469 26.464844 0.929688 25.691406 0.929688 L 4.308594 0.929688 C 3.535156 0.929688 2.808594 1.230469 2.261719 1.777344 C 1.714844 2.324219 1.414062 3.050781 1.414062 3.824219 L 1.414062 25.210938 C 1.414062 25.980469 1.714844 26.707031 2.261719 27.253906 C 2.808594 27.800781 3.535156 28.101562 4.308594 28.101562 "/></g></svg>