<?xml version="1.0" encoding="UTF-8"?><svg xmlns="http://www.w3.org/2000/svg" xmlns:xlink="http://www.w3.org/1999/xlink" contentScriptType="text/ecmascript" width="30pt" zoomAndPan="magnify" contentStyleType="text/css" viewBox="0 0 30 30.000001" height="30.000001pt" preserveAspectRatio="xMidYMid meet" version="1.2"><defs><clipPath xml:id="clip1" id="clip1"><path d="M 0.484375 0 L 29.515625 0 L 29.515625 29.03125 L 0.484375 29.03125 Z M 0.484375 0 "/></clipPath></defs><g xml:id="surface1" id="surface1"><g clip-rule="nonzero" clip-path="url(#clip1)"><path style=" stroke:none;fill-rule:nonzero;fill:rgb(100%,100%,100%);fill-opacity:1;" d="M 0.484375 0 L 29.515625 0 L 29.515625 29.03125 L 0.484375 29.03125 Z M 0.484375 0 "/><path style=" stroke:none;fill-rule:nonzero;fill:rgb(100%,100%,100%);fill-opacity:1;" d="M 0.484375 0 L 29.515625 0 L 29.515625 29.03125 L 0.484375 29.03125 Z M 0.484375 0 "/><path style=" stroke:none;fill-rule:nonzero;fill:rgb(0%,0%,0%);fill-opacity:1;" d="M 27.703125 16.933594 L 18.628906 16.933594 L 18.628906 16.332031 C 18.628906 16.089844 18.582031 15.859375 18.492188 15.636719 C 18.398438 15.414062 18.269531 15.21875 18.097656 15.046875 C 17.925781 14.878906 17.730469 14.746094 17.507812 14.652344 C 17.285156 14.5625 17.054688 14.515625 16.816406 14.515625 L 16.816406 12.703125 C 16.816406 12.535156 16.753906 12.390625 16.636719 12.273438 C 16.519531 12.15625 16.375 12.097656 16.210938 12.097656 L 4.71875 12.097656 C 4.550781 12.097656 4.40625 12.039062 4.289062 11.917969 C 4.171875 11.800781 4.113281 11.660156 4.113281 11.492188 L 4.113281 1.816406 C 4.113281 1.648438 4.171875 1.503906 4.289062 1.386719 C 4.40625 1.269531 4.550781 1.210938 4.71875 1.210938 L 25.28125 1.210938 C 25.449219 1.210938 25.59375 1.269531 25.710938 1.386719 C 25.828125 1.503906 25.886719 1.648438 25.886719 1.816406 L 25.886719 11.492188 C 25.886719 11.660156 25.828125 11.800781 25.710938 11.917969 C 25.59375 12.039062 25.449219 12.097656 25.28125 12.097656 L 18.628906 12.097656 C 18.460938 12.097656 18.320312 12.15625 18.203125 12.273438 C 18.082031 12.390625 18.023438 12.535156 18.023438 12.703125 C 18.023438 12.867188 18.082031 13.011719 18.203125 13.128906 C 18.320312 13.246094 18.460938 13.304688 18.628906 13.304688 L 25.28125 13.304688 C 25.523438 13.304688 25.753906 13.261719 25.976562 13.167969 C 26.199219 13.078125 26.394531 12.945312 26.566406 12.773438 C 26.734375 12.605469 26.867188 12.410156 26.957031 12.1875 C 27.050781 11.964844 27.097656 11.734375 27.097656 11.492188 L 27.097656 1.816406 C 27.097656 1.574219 27.050781 1.34375 26.957031 1.121094 C 26.867188 0.898438 26.734375 0.703125 26.566406 0.53125 C 26.394531 0.363281 26.199219 0.230469 25.976562 0.136719 C 25.753906 0.046875 25.523438 0 25.28125 0 L 4.71875 0 C 4.476562 0 4.246094 0.046875 4.023438 0.136719 C 3.800781 0.230469 3.605469 0.363281 3.433594 0.53125 C 3.265625 0.703125 3.132812 0.898438 3.042969 1.121094 C 2.949219 1.34375 2.902344 1.574219 2.902344 1.816406 L 2.902344 11.492188 C 2.902344 11.734375 2.949219 11.964844 3.042969 12.1875 C 3.132812 12.410156 3.265625 12.605469 3.433594 12.773438 C 3.605469 12.945312 3.800781 13.078125 4.023438 13.167969 C 4.246094 13.261719 4.476562 13.304688 4.71875 13.304688 L 13.183594 13.304688 L 13.183594 14.515625 C 12.945312 14.515625 12.714844 14.5625 12.492188 14.652344 C 12.269531 14.746094 12.074219 14.878906 11.902344 15.046875 C 11.730469 15.21875 11.601562 15.414062 11.507812 15.636719 C 11.417969 15.859375 11.371094 16.089844 11.371094 16.332031 L 11.371094 17.539062 C 11.371094 17.707031 11.429688 17.851562 11.546875 17.96875 C 11.667969 18.085938 11.808594 18.144531 11.976562 18.144531 L 27.703125 18.144531 C 27.867188 18.144531 28.011719 18.203125 28.128906 18.324219 C 28.246094 18.441406 28.304688 18.582031 28.304688 18.75 L 28.304688 27.21875 C 28.304688 27.386719 28.246094 27.527344 28.128906 27.644531 C 28.011719 27.761719 27.867188 27.824219 27.703125 27.824219 L 15.605469 27.824219 L 15.605469 20.566406 L 26.492188 20.566406 C 26.660156 20.566406 26.800781 20.503906 26.917969 20.386719 C 27.039062 20.269531 27.097656 20.125 27.097656 19.960938 C 27.097656 19.792969 27.039062 19.648438 26.917969 19.53125 C 26.800781 19.414062 26.660156 19.355469 26.492188 19.355469 L 1.695312 19.355469 L 1.695312 18.75 C 1.695312 18.582031 1.753906 18.441406 1.871094 18.324219 C 1.988281 18.203125 2.132812 18.144531 2.296875 18.144531 L 9.554688 18.144531 C 9.722656 18.144531 9.867188 18.085938 9.984375 17.96875 C 10.101562 17.851562 10.160156 17.707031 10.160156 17.539062 C 10.160156 17.375 10.101562 17.230469 9.984375 17.113281 C 9.867188 16.996094 9.722656 16.933594 9.554688 16.933594 L 2.296875 16.933594 C 2.058594 16.933594 1.828125 16.980469 1.605469 17.074219 C 1.382812 17.164062 1.183594 17.296875 1.015625 17.46875 C 0.84375 17.636719 0.714844 17.832031 0.621094 18.054688 C 0.53125 18.277344 0.484375 18.507812 0.484375 18.75 L 0.484375 27.21875 C 0.484375 27.457031 0.53125 27.691406 0.621094 27.914062 C 0.714844 28.132812 0.84375 28.332031 1.015625 28.5 C 1.183594 28.671875 1.382812 28.800781 1.605469 28.894531 C 1.828125 28.984375 2.058594 29.03125 2.296875 29.03125 L 27.703125 29.03125 C 27.941406 29.03125 28.171875 28.984375 28.394531 28.894531 C 28.617188 28.800781 28.816406 28.671875 28.984375 28.5 C 29.15625 28.332031 29.285156 28.132812 29.378906 27.914062 C 29.46875 27.691406 29.515625 27.457031 29.515625 27.21875 L 29.515625 18.75 C 29.515625 18.507812 29.46875 18.277344 29.378906 18.054688 C 29.285156 17.832031 29.15625 17.636719 28.984375 17.46875 C 28.816406 17.296875 28.617188 17.164062 28.394531 17.074219 C 28.171875 16.980469 27.941406 16.933594 27.703125 16.933594 Z M 14.394531 13.304688 L 15.605469 13.304688 L 15.605469 14.515625 L 14.394531 14.515625 Z M 12.582031 16.933594 L 12.582031 16.332031 C 12.582031 16.164062 12.640625 16.019531 12.757812 15.902344 C 12.875 15.785156 13.019531 15.726562 13.183594 15.726562 L 16.816406 15.726562 C 16.980469 15.726562 17.125 15.785156 17.242188 15.902344 C 17.359375 16.019531 17.417969 16.164062 17.417969 16.332031 L 17.417969 16.933594 Z M 1.695312 27.21875 L 1.695312 20.566406 L 14.394531 20.566406 L 14.394531 27.824219 L 2.296875 27.824219 C 2.132812 27.824219 1.988281 27.761719 1.871094 27.644531 C 1.753906 27.527344 1.695312 27.386719 1.695312 27.21875 Z M 1.695312 27.21875 "/></g><path style=" stroke:none;fill-rule:nonzero;fill:rgb(0%,0%,0%);fill-opacity:1;" d="M 16.816406 23.589844 L 16.816406 24.796875 C 16.816406 24.964844 16.875 25.109375 16.992188 25.226562 C 17.109375 25.34375 17.253906 25.402344 17.417969 25.402344 C 17.585938 25.402344 17.730469 25.34375 17.847656 25.226562 C 17.964844 25.109375 18.023438 24.964844 18.023438 24.796875 L 18.023438 23.589844 C 18.023438 23.421875 17.964844 23.277344 17.847656 23.160156 C 17.730469 23.042969 17.585938 22.984375 17.417969 22.984375 C 17.253906 22.984375 17.109375 23.042969 16.992188 23.160156 C 16.875 23.277344 16.816406 23.421875 16.816406 23.589844 Z M 16.816406 23.589844 "/><path style=" stroke:none;fill-rule:nonzero;fill:rgb(0%,0%,0%);fill-opacity:1;" d="M 12.582031 22.984375 C 12.414062 22.984375 12.269531 23.042969 12.152344 23.160156 C 12.035156 23.277344 11.976562 23.421875 11.976562 23.589844 L 11.976562 24.796875 C 11.976562 24.964844 12.035156 25.109375 12.152344 25.226562 C 12.269531 25.34375 12.414062 25.402344 12.582031 25.402344 C 12.746094 25.402344 12.890625 25.34375 13.007812 25.226562 C 13.125 25.109375 13.183594 24.964844 13.183594 24.796875 L 13.183594 23.589844 C 13.183594 23.421875 13.125 23.277344 13.007812 23.160156 C 12.890625 23.042969 12.746094 22.984375 12.582031 22.984375 Z M 12.582031 22.984375 "/><path style=" stroke:none;fill-rule:nonzero;fill:rgb(0%,0%,0%);fill-opacity:1;" d="M 25.28125 9.675781 L 25.28125 3.628906 C 25.28125 3.386719 25.234375 3.15625 25.144531 2.933594 C 25.050781 2.710938 24.921875 2.515625 24.75 2.347656 C 24.582031 2.175781 24.382812 2.042969 24.164062 1.953125 C 23.941406 1.859375 23.707031 1.816406 23.46875 1.816406 L 6.53125 1.816406 C 6.292969 1.816406 6.058594 1.859375 5.835938 1.953125 C 5.617188 2.042969 5.417969 2.175781 5.25 2.347656 C 5.078125 2.515625 4.949219 2.710938 4.855469 2.933594 C 4.765625 3.15625 4.71875 3.386719 4.71875 3.628906 L 4.71875 9.675781 C 4.71875 9.917969 4.765625 10.148438 4.855469 10.371094 C 4.949219 10.59375 5.078125 10.789062 5.25 10.960938 C 5.417969 11.128906 5.617188 11.261719 5.835938 11.355469 C 6.058594 11.445312 6.292969 11.492188 6.53125 11.492188 L 23.46875 11.492188 C 23.707031 11.492188 23.941406 11.445312 24.164062 11.355469 C 24.382812 11.261719 24.582031 11.128906 24.75 10.960938 C 24.921875 10.789062 25.050781 10.59375 25.144531 10.371094 C 25.234375 10.148438 25.28125 9.917969 25.28125 9.675781 Z M 5.925781 9.675781 L 5.925781 3.628906 C 5.925781 3.460938 5.988281 3.320312 6.105469 3.203125 C 6.222656 3.082031 6.367188 3.023438 6.53125 3.023438 L 23.46875 3.023438 C 23.632812 3.023438 23.777344 3.082031 23.894531 3.203125 C 24.011719 3.320312 24.074219 3.460938 24.074219 3.628906 L 24.074219 9.675781 C 24.074219 9.84375 24.011719 9.988281 23.894531 10.105469 C 23.777344 10.222656 23.632812 10.28125 23.46875 10.28125 L 6.53125 10.28125 C 6.367188 10.28125 6.222656 10.222656 6.105469 10.105469 C 5.988281 9.988281 5.925781 9.84375 5.925781 9.675781 Z M 5.925781 9.675781 "/></g></svg>