<?xml version="1.0" encoding="UTF-8"?><svg xmlns="http://www.w3.org/2000/svg" xmlns:xlink="http://www.w3.org/1999/xlink" contentScriptType="text/ecmascript" width="30pt" zoomAndPan="magnify" contentStyleType="text/css" viewBox="0 0 30 30.000001" height="30.000001pt" preserveAspectRatio="xMidYMid meet" version="1.2"><defs><clipPath xml:id="clip1" id="clip1"><path d="M 0.484375 0 L 29.515625 0 L 29.515625 29.03125 L 0.484375 29.03125 Z M 0.484375 0 "/></clipPath><clipPath xml:id="clip2" id="clip2"><path d="M 5.074219 1 L 23 1 L 23 29 L 5.074219 29 Z M 5.074219 1 "/></clipPath><clipPath xml:id="clip3" id="clip3"><path d="M 18 20 L 24.425781 20 L 24.425781 28 L 18 28 Z M 18 20 "/></clipPath></defs><g xml:id="surface1" id="surface1"><g clip-rule="nonzero" clip-path="url(#clip1)"><path style=" stroke:none;fill-rule:nonzero;fill:rgb(100%,100%,100%);fill-opacity:1;" d="M 0.484375 0 L 29.515625 0 L 29.515625 29.03125 L 0.484375 29.03125 Z M 0.484375 0 "/><path style=" stroke:none;fill-rule:nonzero;fill:rgb(100%,100%,100%);fill-opacity:1;" d="M 0.484375 0 L 29.515625 0 L 29.515625 29.03125 L 0.484375 29.03125 Z M 0.484375 0 "/></g><g clip-rule="nonzero" clip-path="url(#clip2)"><path style=" stroke:none;fill-rule:nonzero;fill:rgb(0%,0%,0%);fill-opacity:1;" d="M 10.921875 27.203125 L 10.921875 16.289062 L 11.46875 16.289062 L 11.46875 27.203125 C 11.46875 28.03125 12.121094 28.699219 12.925781 28.699219 C 13.730469 28.699219 14.382812 28.03125 14.382812 27.203125 L 14.382812 9.0625 C 14.910156 10.183594 15.382812 12.449219 15.140625 16.699219 C 15.109375 17.183594 15.433594 17.601562 15.882812 17.703125 L 15.882812 26.347656 C 15.242188 26.507812 14.695312 26.714844 15.09375 27.070312 C 15.765625 27.671875 14.488281 28.746094 16.167969 28.882812 C 17.847656 29.023438 20.667969 28.964844 21.746094 28.6875 C 22.820312 28.410156 22.417969 27.394531 20.804688 27.441406 C 19.191406 27.488281 19.257812 26.933594 19.59375 26.609375 C 19.929688 26.285156 19.324219 26.332031 18.722656 26.148438 C 18.117188 25.964844 17.648438 25.832031 17.042969 26.0625 C 16.90625 26.113281 16.703125 26.164062 16.472656 26.214844 L 16.472656 17.636719 C 16.78125 17.492188 17 17.183594 17.023438 16.8125 C 17.207031 13.5625 17.023438 11.03125 16.472656 9.242188 L 16.472656 1.671875 L 15.882812 1.671875 L 15.882812 7.84375 C 15.671875 7.472656 15.433594 7.160156 15.171875 6.90625 C 14.507812 6.269531 13.863281 6.15625 13.53125 6.148438 C 13.511719 6.148438 13.492188 6.148438 13.472656 6.148438 L 12.171875 6.148438 L 11.355469 8.324219 L 11.035156 8.324219 L 10.21875 6.148438 L 8.917969 6.148438 C 8.898438 6.148438 8.878906 6.148438 8.859375 6.148438 C 8.527344 6.15625 7.882812 6.269531 7.21875 6.90625 C 5.699219 8.371094 5.078125 11.703125 5.367188 16.8125 C 5.398438 17.328125 5.8125 17.722656 6.308594 17.722656 C 6.328125 17.722656 6.347656 17.722656 6.363281 17.722656 C 6.886719 17.691406 7.28125 17.234375 7.25 16.699219 C 7.007812 12.449219 7.480469 10.183594 8.007812 9.058594 L 8.007812 27.203125 C 8.007812 28.03125 8.660156 28.699219 9.464844 28.699219 C 10.269531 28.699219 10.921875 28.03125 10.921875 27.203125 Z M 10.921875 27.203125 "/></g><path style=" stroke:none;fill-rule:nonzero;fill:rgb(0%,0%,0%);fill-opacity:1;" d="M 13.847656 2.738281 C 13.847656 3.097656 13.78125 3.445312 13.644531 3.777344 C 13.511719 4.109375 13.320312 4.40625 13.070312 4.660156 C 12.824219 4.914062 12.535156 5.113281 12.210938 5.25 C 11.886719 5.390625 11.546875 5.457031 11.195312 5.457031 C 10.84375 5.457031 10.503906 5.390625 10.179688 5.25 C 9.855469 5.113281 9.566406 4.914062 9.320312 4.660156 C 9.070312 4.40625 8.878906 4.109375 8.742188 3.777344 C 8.609375 3.445312 8.542969 3.097656 8.542969 2.738281 C 8.542969 2.375 8.609375 2.027344 8.742188 1.695312 C 8.878906 1.363281 9.070312 1.066406 9.320312 0.8125 C 9.566406 0.558594 9.855469 0.359375 10.179688 0.222656 C 10.503906 0.0859375 10.84375 0.015625 11.195312 0.015625 C 11.546875 0.015625 11.886719 0.0859375 12.210938 0.222656 C 12.535156 0.359375 12.824219 0.558594 13.070312 0.8125 C 13.320312 1.066406 13.511719 1.363281 13.644531 1.695312 C 13.78125 2.027344 13.847656 2.375 13.847656 2.738281 Z M 13.847656 2.738281 "/><g clip-rule="nonzero" clip-path="url(#clip3)"><path style=" stroke:none;fill-rule:nonzero;fill:rgb(0%,0%,0%);fill-opacity:1;" d="M 19.914062 26.367188 C 19.953125 26.507812 19.902344 26.648438 19.757812 26.785156 C 19.65625 26.878906 19.628906 26.964844 19.636719 26.992188 C 19.660156 27.050781 19.882812 27.199219 20.621094 27.199219 C 20.675781 27.199219 20.734375 27.199219 20.796875 27.199219 C 20.835938 27.195312 20.871094 27.195312 20.910156 27.195312 C 21.699219 27.195312 22.195312 27.433594 22.425781 27.734375 L 23.722656 27.734375 L 24.113281 21.6875 L 24.429688 21.6875 L 24.429688 20.902344 L 18.417969 20.902344 L 18.417969 21.6875 L 18.734375 21.6875 L 18.765625 22.148438 L 21.507812 21.363281 C 21.632812 21.328125 21.765625 21.402344 21.800781 21.53125 C 21.835938 21.660156 21.761719 21.792969 21.636719 21.828125 L 18.796875 22.640625 L 19.011719 25.972656 C 19.101562 25.996094 19.191406 26.011719 19.277344 26.027344 C 19.609375 26.09375 19.847656 26.140625 19.914062 26.367188 Z M 19.914062 26.367188 "/></g><path style=" stroke:none;fill-rule:nonzero;fill:rgb(0%,0%,0%);fill-opacity:1;" d="M 18.878906 22.367188 C 18.84375 22.238281 18.710938 22.164062 18.585938 22.199219 L 17.914062 22.390625 C 17.785156 22.429688 17.714844 22.5625 17.75 22.691406 C 17.777344 22.796875 17.871094 22.867188 17.976562 22.867188 C 17.996094 22.867188 18.019531 22.863281 18.039062 22.859375 L 18.714844 22.664062 C 18.839844 22.628906 18.914062 22.496094 18.878906 22.367188 Z M 18.878906 22.367188 "/></g></svg>