<?xml version="1.0" encoding="UTF-8"?><svg xmlns="http://www.w3.org/2000/svg" xmlns:xlink="http://www.w3.org/1999/xlink" contentScriptType="text/ecmascript" width="30pt" zoomAndPan="magnify" contentStyleType="text/css" viewBox="0 0 30 30.000001" height="30.000001pt" preserveAspectRatio="xMidYMid meet" version="1.2"><defs><clipPath xml:id="clip1" id="clip1"><path d="M 0.484375 0 L 29.515625 0 L 29.515625 29.03125 L 0.484375 29.03125 Z M 0.484375 0 "/></clipPath><clipPath xml:id="clip2" id="clip2"><path d="M 4.84375 0.230469 L 28.066406 0.230469 L 28.066406 28.535156 L 4.84375 28.535156 Z M 4.84375 0.230469 "/></clipPath></defs><g xml:id="surface1" id="surface1"><g clip-rule="nonzero" clip-path="url(#clip1)"><path style=" stroke:none;fill-rule:nonzero;fill:rgb(100%,100%,100%);fill-opacity:1;" d="M 0.484375 0 L 29.515625 0 L 29.515625 36.289062 L 0.484375 36.289062 Z M 0.484375 0 "/><path style=" stroke:none;fill-rule:nonzero;fill:rgb(100%,100%,100%);fill-opacity:1;" d="M 0.484375 0 L 29.515625 0 L 29.515625 29.03125 L 0.484375 29.03125 Z M 0.484375 0 "/><path style=" stroke:none;fill-rule:nonzero;fill:rgb(100%,100%,100%);fill-opacity:1;" d="M 0.484375 0 L 29.515625 0 L 29.515625 29.03125 L 0.484375 29.03125 Z M 0.484375 0 "/></g><g clip-rule="nonzero" clip-path="url(#clip2)"><path style=" stroke:none;fill-rule:nonzero;fill:rgb(0%,0%,0%);fill-opacity:1;" d="M 14.453125 5.609375 L 6.761719 5.609375 L 6.761719 28.535156 L 22.550781 28.535156 L 22.550781 5.609375 Z M 14.421875 28.070312 L 7.246094 28.070312 L 7.246094 6.082031 L 14.421875 6.082031 Z M 22.074219 28.070312 L 14.898438 28.070312 L 14.898438 6.082031 L 22.074219 6.082031 Z M 4.851562 3.738281 L 24.46875 3.738281 L 24.46875 28.535156 L 23.035156 28.535156 L 23.035156 5.140625 L 6.285156 5.140625 L 6.285156 28.535156 L 4.851562 28.535156 Z M 17.050781 2.039062 C 17.050781 2.199219 16.917969 2.335938 16.75 2.335938 L 12.566406 2.335938 C 12.402344 2.335938 12.261719 2.207031 12.261719 2.039062 L 12.261719 1.226562 C 12.261719 1.066406 12.394531 0.933594 12.566406 0.933594 L 16.75 0.933594 C 16.914062 0.933594 17.050781 1.0625 17.050781 1.226562 Z M 17.769531 1.125 C 17.769531 0.632812 17.359375 0.230469 16.851562 0.230469 L 12.460938 0.230469 C 11.957031 0.230469 11.546875 0.632812 11.546875 1.125 L 11.546875 2.140625 C 11.546875 2.636719 11.957031 3.039062 12.460938 3.039062 L 16.851562 3.039062 C 17.359375 3.039062 17.769531 2.636719 17.769531 2.140625 Z M 17.292969 2.140625 C 17.292969 2.375 17.101562 2.566406 16.859375 2.566406 L 12.46875 2.566406 C 12.226562 2.566406 12.035156 2.375 12.035156 2.140625 L 12.035156 1.125 C 12.035156 0.890625 12.226562 0.703125 12.46875 0.703125 L 16.851562 0.703125 C 17.09375 0.703125 17.289062 0.890625 17.289062 1.125 L 17.289062 2.140625 Z M 28.058594 15.007812 C 28.058594 14.601562 27.722656 14.265625 27.296875 14.265625 L 25.941406 14.265625 C 25.527344 14.265625 25.183594 14.59375 25.183594 15.007812 L 25.183594 19.140625 C 25.183594 19.550781 25.519531 19.886719 25.941406 19.886719 L 27.296875 19.886719 C 27.714844 19.886719 28.058594 19.554688 28.058594 19.140625 Z M 27.722656 19.164062 C 27.722656 19.382812 27.539062 19.554688 27.324219 19.554688 L 25.964844 19.554688 C 25.742188 19.554688 25.566406 19.378906 25.566406 19.164062 L 25.566406 15.03125 C 25.566406 14.8125 25.75 14.644531 25.964844 14.644531 L 27.324219 14.644531 C 27.546875 14.644531 27.722656 14.820312 27.722656 15.03125 Z M 27.339844 15.710938 C 27.339844 15.507812 27.171875 15.34375 26.96875 15.34375 L 26.28125 15.34375 C 26.074219 15.34375 25.90625 15.507812 25.90625 15.710938 L 25.90625 16.382812 C 25.90625 16.582031 26.074219 16.75 26.28125 16.75 L 26.96875 16.75 C 27.171875 16.75 27.339844 16.582031 27.339844 16.382812 Z M 26.871094 16.023438 L 26.671875 15.859375 L 26.671875 16.507812 L 26.527344 16.507812 L 26.527344 15.863281 L 26.382812 16.023438 L 26.265625 15.898438 L 26.648438 15.527344 L 27.015625 15.898438 Z M 27.339844 17.816406 C 27.339844 17.613281 27.171875 17.449219 26.96875 17.449219 L 26.28125 17.449219 C 26.074219 17.449219 25.90625 17.613281 25.90625 17.816406 L 25.90625 18.488281 C 25.90625 18.6875 26.074219 18.851562 26.28125 18.851562 L 26.96875 18.851562 C 27.171875 18.851562 27.339844 18.6875 27.339844 18.488281 Z M 26.648438 18.582031 L 26.265625 18.210938 L 26.375 18.085938 L 26.527344 18.25 L 26.527344 17.6875 L 26.71875 17.6875 L 26.71875 18.246094 L 26.886719 18.085938 L 27.015625 18.210938 Z M 26.648438 18.582031 "/></g></g></svg>