<?xml version="1.0" encoding="UTF-8"?><svg xmlns="http://www.w3.org/2000/svg" xmlns:xlink="http://www.w3.org/1999/xlink" contentScriptType="text/ecmascript" width="30pt" zoomAndPan="magnify" contentStyleType="text/css" viewBox="0 0 30 30.000001" height="30.000001pt" preserveAspectRatio="xMidYMid meet" version="1.2"><defs><clipPath xml:id="clip1" id="clip1"><path d="M 0.484375 0 L 29.515625 0 L 29.515625 29.03125 L 0.484375 29.03125 Z M 0.484375 0 "/></clipPath><clipPath xml:id="clip2" id="clip2"><path d="M 2.027344 0 L 28.15625 0 L 28.15625 29.03125 L 2.027344 29.03125 Z M 2.027344 0 "/></clipPath></defs><g xml:id="surface1" id="surface1"><g clip-rule="nonzero" clip-path="url(#clip1)"><path style=" stroke:none;fill-rule:nonzero;fill:rgb(100%,100%,100%);fill-opacity:1;" d="M 0.484375 0 L 29.515625 0 L 29.515625 29.03125 L 0.484375 29.03125 Z M 0.484375 0 "/><path style=" stroke:none;fill-rule:nonzero;fill:rgb(100%,100%,100%);fill-opacity:1;" d="M 0.484375 0 L 29.515625 0 L 29.515625 29.03125 L 0.484375 29.03125 Z M 0.484375 0 "/></g><g clip-rule="nonzero" clip-path="url(#clip2)"><path style=" stroke:none;fill-rule:nonzero;fill:rgb(0%,0%,0%);fill-opacity:1;" d="M 26.433594 13.789062 L 3.746094 13.789062 C 3.371094 13.789062 3.066406 13.484375 3.066406 13.113281 C 3.066406 12.738281 3.371094 12.4375 3.746094 12.4375 L 26.433594 12.4375 C 26.808594 12.4375 27.113281 12.738281 27.113281 13.113281 C 27.113281 13.484375 26.808594 13.789062 26.433594 13.789062 Z M 4.265625 28.003906 L 4.265625 26.773438 L 25.917969 26.773438 L 25.917969 28.003906 Z M 8.117188 17.78125 C 8.117188 18.222656 7.753906 18.582031 7.308594 18.582031 C 6.863281 18.582031 6.5 18.222656 6.5 17.78125 C 6.5 17.339844 6.863281 16.976562 7.308594 16.976562 C 7.753906 16.976562 8.117188 17.339844 8.117188 17.78125 Z M 6.753906 25.746094 L 6.648438 25.066406 C 6.367188 23.214844 6.378906 21.34375 6.675781 19.5 C 6.875 19.570312 7.085938 19.609375 7.308594 19.609375 C 7.53125 19.609375 7.742188 19.570312 7.941406 19.5 C 8.238281 21.34375 8.25 23.214844 7.964844 25.066406 L 7.863281 25.746094 Z M 13.175781 17.78125 C 13.175781 18.222656 12.8125 18.582031 12.367188 18.582031 C 11.921875 18.582031 11.558594 18.222656 11.558594 17.78125 C 11.558594 17.339844 11.921875 16.976562 12.367188 16.976562 C 12.8125 16.976562 13.175781 17.339844 13.175781 17.78125 Z M 11.8125 25.746094 L 11.707031 25.066406 C 11.425781 23.214844 11.4375 21.34375 11.734375 19.5 C 11.933594 19.570312 12.144531 19.609375 12.367188 19.609375 C 12.589844 19.609375 12.800781 19.570312 13 19.5 C 13.296875 21.34375 13.308594 23.214844 13.023438 25.066406 L 12.921875 25.746094 Z M 18.621094 17.78125 C 18.621094 18.222656 18.257812 18.582031 17.8125 18.582031 C 17.367188 18.582031 17.003906 18.222656 17.003906 17.78125 C 17.003906 17.339844 17.367188 16.976562 17.8125 16.976562 C 18.257812 16.976562 18.621094 17.339844 18.621094 17.78125 Z M 17.257812 25.746094 L 17.15625 25.066406 C 16.871094 23.214844 16.882812 21.34375 17.179688 19.5 C 17.378906 19.570312 17.589844 19.609375 17.8125 19.609375 C 18.035156 19.609375 18.246094 19.570312 18.445312 19.5 C 18.742188 21.34375 18.753906 23.214844 18.472656 25.066406 L 18.367188 25.746094 Z M 23.679688 17.78125 C 23.679688 18.222656 23.316406 18.582031 22.871094 18.582031 C 22.425781 18.582031 22.0625 18.222656 22.0625 17.78125 C 22.0625 17.339844 22.425781 16.976562 22.871094 16.976562 C 23.316406 16.976562 23.679688 17.339844 23.679688 17.78125 Z M 22.316406 25.746094 L 22.214844 25.066406 C 21.933594 23.214844 21.941406 21.34375 22.242188 19.5 C 22.4375 19.570312 22.652344 19.609375 22.871094 19.609375 C 23.09375 19.609375 23.308594 19.570312 23.503906 19.5 C 23.804688 21.34375 23.8125 23.214844 23.53125 25.066406 L 23.425781 25.746094 Z M 25.917969 14.816406 L 25.917969 25.746094 L 24.472656 25.746094 L 24.550781 25.222656 C 24.878906 23.070312 24.835938 20.902344 24.421875 18.765625 C 24.605469 18.484375 24.714844 18.144531 24.714844 17.78125 C 24.714844 17.394531 24.59375 17.039062 24.386719 16.746094 L 24.386719 14.816406 Z M 23.355469 14.816406 L 23.355469 16.015625 C 23.199219 15.972656 23.039062 15.953125 22.871094 15.953125 C 22.707031 15.953125 22.542969 15.972656 22.390625 16.015625 L 22.390625 14.816406 Z M 21.355469 14.816406 L 21.355469 16.742188 C 21.152344 17.039062 21.03125 17.394531 21.03125 17.78125 C 21.03125 18.144531 21.136719 18.484375 21.320312 18.769531 C 20.910156 20.902344 20.863281 23.070312 21.191406 25.222656 L 21.273438 25.746094 L 19.414062 25.746094 L 19.492188 25.222656 C 19.820312 23.070312 19.777344 20.902344 19.363281 18.769531 C 19.546875 18.484375 19.65625 18.144531 19.65625 17.78125 C 19.65625 17.394531 19.535156 17.039062 19.328125 16.742188 L 19.328125 14.816406 Z M 18.296875 14.816406 L 18.296875 16.015625 C 18.140625 15.972656 17.980469 15.953125 17.8125 15.953125 C 17.644531 15.953125 17.484375 15.972656 17.332031 16.015625 L 17.332031 14.816406 Z M 16.296875 14.816406 L 16.296875 16.746094 C 16.089844 17.039062 15.972656 17.394531 15.972656 17.78125 C 15.972656 18.144531 16.078125 18.484375 16.261719 18.765625 C 15.851562 20.902344 15.804688 23.070312 16.132812 25.222656 L 16.214844 25.746094 L 13.96875 25.746094 L 14.046875 25.222656 C 14.375 23.070312 14.328125 20.902344 13.917969 18.765625 C 14.101562 18.484375 14.207031 18.144531 14.207031 17.78125 C 14.207031 17.394531 14.089844 17.039062 13.882812 16.746094 L 13.882812 14.816406 Z M 12.847656 14.816406 L 12.847656 16.015625 C 12.695312 15.972656 12.535156 15.953125 12.367188 15.953125 C 12.199219 15.953125 12.039062 15.972656 11.882812 16.015625 L 11.882812 14.816406 Z M 10.851562 14.816406 L 10.851562 16.742188 C 10.644531 17.039062 10.523438 17.394531 10.523438 17.78125 C 10.523438 18.144531 10.632812 18.484375 10.816406 18.769531 C 10.40625 20.902344 10.359375 23.070312 10.6875 25.222656 L 10.765625 25.746094 L 8.90625 25.746094 L 8.988281 25.222656 C 9.316406 23.070312 9.269531 20.902344 8.859375 18.765625 C 9.042969 18.484375 9.148438 18.144531 9.148438 17.78125 C 9.148438 17.394531 9.027344 17.039062 8.824219 16.746094 L 8.824219 14.816406 Z M 7.789062 14.816406 L 7.789062 16.015625 C 7.636719 15.972656 7.476562 15.953125 7.308594 15.953125 C 7.140625 15.953125 6.980469 15.972656 6.824219 16.015625 L 6.824219 14.816406 Z M 5.792969 14.816406 L 5.792969 16.746094 C 5.585938 17.039062 5.464844 17.394531 5.464844 17.78125 C 5.464844 18.144531 5.574219 18.484375 5.757812 18.765625 C 5.34375 20.902344 5.300781 23.070312 5.628906 25.222656 L 5.707031 25.746094 L 4.265625 25.746094 L 4.265625 14.816406 Z M 6.28125 1.746094 L 7.269531 2.722656 L 7.269531 11.410156 L 6.28125 11.410156 Z M 22.910156 2.722656 L 23.898438 1.746094 L 23.898438 11.410156 L 22.910156 11.410156 Z M 16.53125 3.023438 L 21.875 3.023438 L 21.875 11.410156 L 16.53125 11.410156 Z M 14.683594 3.023438 L 15.5 3.023438 L 15.5 11.410156 L 14.683594 11.410156 Z M 22.179688 1.996094 L 8 1.996094 L 7.019531 1.027344 L 23.160156 1.027344 Z M 8.304688 11.410156 L 8.304688 3.023438 L 13.648438 3.023438 L 13.648438 11.410156 Z M 28.148438 13.113281 C 28.148438 12.171875 27.378906 11.410156 26.433594 11.410156 L 24.929688 11.410156 L 24.929688 0.511719 C 24.929688 0.507812 24.929688 0.503906 24.929688 0.5 C 24.929688 0.488281 24.929688 0.476562 24.929688 0.464844 C 24.925781 0.453125 24.925781 0.445312 24.925781 0.4375 C 24.925781 0.429688 24.921875 0.421875 24.921875 0.414062 C 24.917969 0.40625 24.917969 0.394531 24.914062 0.386719 C 24.914062 0.378906 24.910156 0.371094 24.910156 0.367188 C 24.90625 0.355469 24.902344 0.347656 24.898438 0.339844 C 24.898438 0.332031 24.894531 0.324219 24.890625 0.316406 C 24.886719 0.308594 24.882812 0.300781 24.878906 0.292969 C 24.875 0.285156 24.875 0.277344 24.871094 0.273438 C 24.867188 0.265625 24.859375 0.253906 24.855469 0.246094 C 24.851562 0.242188 24.847656 0.234375 24.84375 0.230469 C 24.839844 0.21875 24.832031 0.210938 24.824219 0.203125 C 24.820312 0.199219 24.816406 0.191406 24.816406 0.1875 C 24.804688 0.175781 24.792969 0.164062 24.78125 0.152344 C 24.769531 0.140625 24.753906 0.128906 24.742188 0.117188 C 24.738281 0.113281 24.738281 0.113281 24.734375 0.109375 C 24.722656 0.101562 24.710938 0.09375 24.703125 0.0859375 C 24.695312 0.0820312 24.691406 0.0820312 24.6875 0.078125 C 24.675781 0.0703125 24.667969 0.0664062 24.65625 0.0585938 C 24.652344 0.0585938 24.648438 0.0546875 24.640625 0.0546875 C 24.632812 0.046875 24.621094 0.0429688 24.613281 0.0390625 C 24.605469 0.0390625 24.601562 0.0351562 24.597656 0.0351562 C 24.585938 0.03125 24.574219 0.0273438 24.5625 0.0234375 C 24.5625 0.0195312 24.558594 0.0195312 24.554688 0.0195312 C 24.511719 0.0078125 24.464844 0 24.414062 0 L 5.765625 0 C 5.75 0 5.730469 0 5.714844 0.00390625 C 5.703125 0.00390625 5.695312 0.00390625 5.683594 0.0078125 C 5.679688 0.0078125 5.671875 0.0078125 5.664062 0.0117188 C 5.652344 0.0117188 5.644531 0.015625 5.632812 0.0195312 C 5.625 0.0195312 5.621094 0.0195312 5.617188 0.0234375 C 5.605469 0.0273438 5.59375 0.0273438 5.585938 0.0351562 C 5.578125 0.0351562 5.574219 0.0351562 5.566406 0.0390625 C 5.558594 0.0429688 5.546875 0.046875 5.539062 0.0507812 C 5.535156 0.0546875 5.527344 0.0585938 5.523438 0.0585938 C 5.511719 0.0664062 5.503906 0.0703125 5.492188 0.078125 C 5.488281 0.0820312 5.484375 0.0820312 5.480469 0.0859375 C 5.46875 0.09375 5.457031 0.101562 5.445312 0.113281 C 5.441406 0.113281 5.441406 0.113281 5.4375 0.117188 C 5.425781 0.128906 5.410156 0.140625 5.398438 0.152344 C 5.386719 0.164062 5.375 0.175781 5.363281 0.1875 C 5.363281 0.191406 5.359375 0.199219 5.355469 0.203125 C 5.347656 0.210938 5.339844 0.21875 5.335938 0.230469 C 5.332031 0.234375 5.328125 0.242188 5.324219 0.246094 C 5.320312 0.253906 5.3125 0.265625 5.308594 0.273438 C 5.304688 0.277344 5.304688 0.285156 5.300781 0.292969 C 5.296875 0.300781 5.292969 0.308594 5.289062 0.316406 C 5.285156 0.324219 5.28125 0.332031 5.28125 0.339844 C 5.277344 0.347656 5.273438 0.355469 5.269531 0.367188 C 5.269531 0.371094 5.265625 0.378906 5.265625 0.386719 C 5.261719 0.394531 5.261719 0.40625 5.257812 0.414062 C 5.257812 0.421875 5.257812 0.429688 5.253906 0.4375 C 5.253906 0.445312 5.253906 0.453125 5.25 0.464844 C 5.25 0.476562 5.25 0.488281 5.25 0.5 C 5.25 0.503906 5.25 0.507812 5.25 0.511719 L 5.25 11.410156 L 3.746094 11.410156 C 2.800781 11.410156 2.03125 12.171875 2.03125 13.113281 C 2.03125 13.871094 2.535156 14.519531 3.230469 14.734375 L 3.230469 28.519531 C 3.230469 28.800781 3.460938 29.03125 3.746094 29.03125 L 26.433594 29.03125 C 26.71875 29.03125 26.949219 28.800781 26.949219 28.519531 L 26.949219 14.734375 C 27.644531 14.519531 28.148438 13.871094 28.148438 13.113281 "/></g></g></svg>