<?xml version="1.0" encoding="UTF-8"?><svg xmlns="http://www.w3.org/2000/svg" xmlns:xlink="http://www.w3.org/1999/xlink" contentScriptType="text/ecmascript" width="30pt" zoomAndPan="magnify" contentStyleType="text/css" viewBox="0 0 30 30.000001" height="30.000001pt" preserveAspectRatio="xMidYMid meet" version="1.2"><defs><clipPath xml:id="clip1" id="clip1"><path d="M 0.484375 0 L 29.515625 0 L 29.515625 29.03125 L 0.484375 29.03125 Z M 0.484375 0 "/></clipPath><clipPath xml:id="clip2" id="clip2"><path d="M 5 1.742188 L 25 1.742188 L 25 12 L 5 12 Z M 5 1.742188 "/></clipPath><clipPath xml:id="clip3" id="clip3"><path d="M 14 1.742188 L 22 1.742188 L 22 12 L 14 12 Z M 14 1.742188 "/></clipPath><clipPath xml:id="clip4" id="clip4"><path d="M 14 1.742188 L 19 1.742188 L 19 12 L 14 12 Z M 14 1.742188 "/></clipPath><clipPath xml:id="clip5" id="clip5"><path d="M 11 1.742188 L 16 1.742188 L 16 12 L 11 12 Z M 11 1.742188 "/></clipPath><clipPath xml:id="clip6" id="clip6"><path d="M 8 1.742188 L 16 1.742188 L 16 12 L 8 12 Z M 8 1.742188 "/></clipPath><clipPath xml:id="clip7" id="clip7"><path d="M 14 1.742188 L 16 1.742188 L 16 12 L 14 12 Z M 14 1.742188 "/></clipPath><clipPath xml:id="clip8" id="clip8"><path d="M 11 24 L 19 24 L 19 27.011719 L 11 27.011719 Z M 11 24 "/></clipPath><clipPath xml:id="clip9" id="clip9"><path d="M 0.484375 20 L 9 20 L 9 23 L 0.484375 23 Z M 0.484375 20 "/></clipPath><clipPath xml:id="clip10" id="clip10"><path d="M 0.484375 15 L 3 15 L 3 22 L 0.484375 22 Z M 0.484375 15 "/></clipPath><clipPath xml:id="clip11" id="clip11"><path d="M 0.484375 22 L 3 22 L 3 27.011719 L 0.484375 27.011719 Z M 0.484375 22 "/></clipPath><clipPath xml:id="clip12" id="clip12"><path d="M 5 22 L 9 22 L 9 27.011719 L 5 27.011719 Z M 5 22 "/></clipPath><clipPath xml:id="clip13" id="clip13"><path d="M 21 20 L 29.515625 20 L 29.515625 23 L 21 23 Z M 21 20 "/></clipPath><clipPath xml:id="clip14" id="clip14"><path d="M 27 15 L 29.515625 15 L 29.515625 22 L 27 22 Z M 27 15 "/></clipPath><clipPath xml:id="clip15" id="clip15"><path d="M 27 22 L 29.515625 22 L 29.515625 27.011719 L 27 27.011719 Z M 27 22 "/></clipPath><clipPath xml:id="clip16" id="clip16"><path d="M 21 22 L 25 22 L 25 27.011719 L 21 27.011719 Z M 21 22 "/></clipPath></defs><g xml:id="surface1" id="surface1"><g clip-rule="nonzero" clip-path="url(#clip1)"><path style=" stroke:none;fill-rule:nonzero;fill:rgb(100%,100%,100%);fill-opacity:1;" d="M 0.484375 0 L 29.515625 0 L 29.515625 29.03125 L 0.484375 29.03125 Z M 0.484375 0 "/><path style=" stroke:none;fill-rule:nonzero;fill:rgb(100%,100%,100%);fill-opacity:1;" d="M 0.484375 0 L 29.515625 0 L 29.515625 29.03125 L 0.484375 29.03125 Z M 0.484375 0 "/></g><path style=" stroke:none;fill-rule:nonzero;fill:rgb(0%,0%,0%);fill-opacity:1;" d="M 14.980469 16.804688 C 14.789062 16.804688 14.636719 16.652344 14.636719 16.464844 L 14.636719 11.511719 C 14.636719 11.324219 14.789062 11.171875 14.980469 11.171875 C 15.167969 11.171875 15.320312 11.324219 15.320312 11.511719 L 15.320312 16.464844 C 15.320312 16.652344 15.167969 16.804688 14.980469 16.804688 "/><g clip-rule="nonzero" clip-path="url(#clip2)"><path style=" stroke:none;fill-rule:nonzero;fill:rgb(0%,0%,0%);fill-opacity:1;" d="M 24.507812 11.871094 C 24.320312 11.871094 24.164062 11.71875 24.164062 11.53125 C 24.164062 6.589844 20.105469 2.523438 15.109375 2.464844 C 15.074219 2.464844 15.039062 2.464844 15.003906 2.464844 L 15 2.464844 C 14.996094 2.464844 14.992188 2.464844 14.984375 2.464844 C 14.945312 2.464844 14.902344 2.464844 14.859375 2.464844 C 9.90625 2.539062 5.859375 6.585938 5.835938 11.484375 C 5.835938 11.484375 5.835938 11.484375 5.835938 11.488281 C 5.835938 11.5 5.835938 11.511719 5.835938 11.523438 L 5.835938 11.53125 C 5.835938 11.71875 5.679688 11.871094 5.492188 11.871094 C 5.304688 11.871094 5.148438 11.71875 5.148438 11.53125 L 5.148438 11.523438 C 5.148438 11.507812 5.152344 11.492188 5.152344 11.476562 C 5.15625 10.179688 5.417969 8.921875 5.925781 7.738281 C 6.414062 6.59375 7.113281 5.5625 8.003906 4.675781 C 8.890625 3.789062 9.925781 3.085938 11.078125 2.589844 C 12.269531 2.078125 13.539062 1.808594 14.847656 1.789062 C 14.882812 1.789062 14.921875 1.789062 14.972656 1.789062 C 14.980469 1.789062 14.992188 1.789062 15 1.789062 L 15.003906 1.789062 C 15.042969 1.789062 15.082031 1.789062 15.121094 1.789062 C 16.4375 1.804688 17.710938 2.070312 18.910156 2.585938 C 20.070312 3.082031 21.113281 3.789062 22.003906 4.679688 C 22.898438 5.574219 23.597656 6.609375 24.085938 7.765625 C 24.59375 8.957031 24.851562 10.226562 24.851562 11.53125 C 24.851562 11.71875 24.695312 11.871094 24.507812 11.871094 "/></g><g clip-rule="nonzero" clip-path="url(#clip3)"><path style=" stroke:none;fill-rule:nonzero;fill:rgb(0%,0%,0%);fill-opacity:1;" d="M 15.113281 1.816406 C 15.113281 1.816406 15.117188 1.816406 15.117188 1.816406 C 15.117188 1.816406 15.113281 1.816406 15.113281 1.816406 Z M 21.375 11.394531 C 21.191406 11.394531 21.039062 11.25 21.035156 11.070312 C 20.855469 7.304688 18.46875 3.933594 14.949219 2.480469 C 14.925781 2.472656 14.898438 2.460938 14.875 2.449219 C 14.871094 2.449219 14.867188 2.445312 14.863281 2.445312 C 14.859375 2.445312 14.859375 2.445312 14.855469 2.441406 C 14.726562 2.394531 14.632812 2.269531 14.632812 2.125 C 14.632812 1.9375 14.789062 1.789062 14.976562 1.789062 C 15.019531 1.789062 15.058594 1.796875 15.097656 1.808594 C 15.105469 1.8125 15.109375 1.8125 15.113281 1.816406 C 15.117188 1.816406 15.117188 1.816406 15.121094 1.816406 L 15.121094 1.820312 C 15.125 1.820312 15.128906 1.820312 15.128906 1.820312 C 15.15625 1.832031 15.1875 1.84375 15.214844 1.855469 C 17.042969 2.613281 18.621094 3.859375 19.773438 5.464844 C 20.949219 7.101562 21.625 9.03125 21.71875 11.039062 C 21.71875 11.046875 21.71875 11.050781 21.71875 11.054688 C 21.71875 11.242188 21.566406 11.394531 21.375 11.394531 "/></g><g clip-rule="nonzero" clip-path="url(#clip4)"><path style=" stroke:none;fill-rule:nonzero;fill:rgb(0%,0%,0%);fill-opacity:1;" d="M 18.210938 11.40625 C 18.03125 11.40625 17.878906 11.265625 17.867188 11.085938 C 17.667969 7.988281 16.582031 5.027344 14.722656 2.523438 C 14.722656 2.523438 14.722656 2.519531 14.722656 2.519531 C 14.714844 2.511719 14.710938 2.507812 14.707031 2.503906 C 14.707031 2.5 14.707031 2.5 14.707031 2.5 C 14.675781 2.457031 14.644531 2.417969 14.613281 2.378906 C 14.613281 2.375 14.613281 2.375 14.613281 2.375 C 14.601562 2.359375 14.589844 2.347656 14.578125 2.332031 C 14.464844 2.183594 14.496094 1.96875 14.644531 1.859375 C 14.796875 1.746094 15.011719 1.773438 15.125 1.921875 C 15.136719 1.9375 15.148438 1.953125 15.160156 1.96875 C 15.191406 2.011719 15.226562 2.054688 15.257812 2.097656 C 15.261719 2.105469 15.269531 2.117188 15.277344 2.125 C 17.210938 4.734375 18.34375 7.816406 18.550781 11.042969 C 18.5625 11.230469 18.421875 11.390625 18.230469 11.402344 C 18.222656 11.402344 18.21875 11.40625 18.210938 11.40625 "/></g><g clip-rule="nonzero" clip-path="url(#clip5)"><path style=" stroke:none;fill-rule:nonzero;fill:rgb(0%,0%,0%);fill-opacity:1;" d="M 11.753906 11.425781 C 11.75 11.425781 11.742188 11.425781 11.738281 11.425781 C 11.550781 11.417969 11.402344 11.257812 11.414062 11.070312 C 11.578125 7.808594 12.71875 4.703125 14.707031 2.097656 C 14.714844 2.085938 14.722656 2.078125 14.726562 2.070312 C 14.753906 2.035156 14.785156 1.996094 14.8125 1.960938 C 14.820312 1.949219 14.832031 1.933594 14.84375 1.917969 C 14.960938 1.769531 15.175781 1.746094 15.324219 1.859375 C 15.472656 1.972656 15.5 2.1875 15.382812 2.335938 C 15.375 2.347656 15.363281 2.363281 15.351562 2.375 C 15.324219 2.410156 15.300781 2.445312 15.273438 2.480469 C 15.273438 2.480469 15.273438 2.480469 15.269531 2.480469 C 15.265625 2.488281 15.261719 2.492188 15.257812 2.496094 C 15.257812 2.5 15.257812 2.5 15.253906 2.503906 C 13.347656 5 12.253906 7.976562 12.097656 11.105469 C 12.085938 11.285156 11.9375 11.425781 11.753906 11.425781 "/></g><g clip-rule="nonzero" clip-path="url(#clip6)"><path style=" stroke:none;fill-rule:nonzero;fill:rgb(0%,0%,0%);fill-opacity:1;" d="M 8.601562 11.457031 C 8.414062 11.457031 8.257812 11.304688 8.257812 11.117188 C 8.257812 11.113281 8.257812 11.109375 8.257812 11.105469 C 8.339844 9.082031 9.007812 7.140625 10.183594 5.492188 C 11.339844 3.878906 12.917969 2.621094 14.753906 1.859375 C 14.789062 1.847656 14.824219 1.832031 14.863281 1.816406 L 14.867188 1.816406 C 14.871094 1.8125 14.875 1.8125 14.875 1.8125 C 15.050781 1.742188 15.25 1.828125 15.320312 2 C 15.390625 2.171875 15.308594 2.367188 15.136719 2.4375 C 15.132812 2.4375 15.132812 2.4375 15.128906 2.441406 L 15.121094 2.445312 C 15.121094 2.445312 15.117188 2.445312 15.117188 2.445312 C 15.085938 2.457031 15.050781 2.472656 15.019531 2.484375 C 11.484375 3.949219 9.097656 7.34375 8.941406 11.128906 C 8.9375 11.3125 8.785156 11.457031 8.601562 11.457031 "/></g><g clip-rule="nonzero" clip-path="url(#clip7)"><path style=" stroke:none;fill-rule:nonzero;fill:rgb(0%,0%,0%);fill-opacity:1;" d="M 15 11.609375 C 14.8125 11.609375 14.65625 11.457031 14.65625 11.269531 L 14.65625 2.128906 C 14.65625 1.941406 14.8125 1.789062 15 1.789062 C 15.1875 1.789062 15.34375 1.9375 15.34375 2.125 L 15.34375 11.269531 C 15.34375 11.457031 15.1875 11.609375 15 11.609375 "/></g><path style=" stroke:none;fill-rule:nonzero;fill:rgb(0%,0%,0%);fill-opacity:1;" d="M 11.816406 11.859375 C 11.628906 11.859375 11.476562 11.710938 11.476562 11.523438 C 11.476562 10.847656 10.917969 10.296875 10.234375 10.296875 C 9.554688 10.296875 8.996094 10.847656 8.996094 11.523438 C 8.996094 11.710938 8.84375 11.859375 8.65625 11.859375 C 8.464844 11.859375 8.3125 11.710938 8.3125 11.523438 C 8.3125 10.847656 7.757812 10.296875 7.074219 10.296875 C 6.390625 10.296875 5.835938 10.847656 5.835938 11.523438 C 5.835938 11.710938 5.679688 11.859375 5.492188 11.859375 C 5.304688 11.859375 5.148438 11.710938 5.148438 11.523438 C 5.148438 10.472656 6.011719 9.621094 7.074219 9.621094 C 7.726562 9.621094 8.308594 9.945312 8.65625 10.441406 C 9.003906 9.945312 9.582031 9.621094 10.234375 9.621094 C 11.296875 9.621094 12.160156 10.472656 12.160156 11.523438 C 12.160156 11.710938 12.007812 11.859375 11.816406 11.859375 "/><path style=" stroke:none;fill-rule:nonzero;fill:rgb(0%,0%,0%);fill-opacity:1;" d="M 18.140625 11.859375 C 17.953125 11.859375 17.800781 11.710938 17.800781 11.523438 C 17.800781 10.847656 17.242188 10.296875 16.558594 10.296875 C 15.878906 10.296875 15.320312 10.847656 15.320312 11.523438 C 15.320312 11.710938 15.167969 11.859375 14.980469 11.859375 C 14.789062 11.859375 14.636719 11.710938 14.636719 11.523438 C 14.636719 10.847656 14.082031 10.296875 13.398438 10.296875 C 12.714844 10.296875 12.160156 10.847656 12.160156 11.523438 C 12.160156 11.710938 12.007812 11.859375 11.816406 11.859375 C 11.628906 11.859375 11.476562 11.710938 11.476562 11.523438 C 11.476562 10.472656 12.335938 9.621094 13.398438 9.621094 C 14.050781 9.621094 14.632812 9.945312 14.980469 10.441406 C 15.328125 9.945312 15.90625 9.621094 16.558594 9.621094 C 17.621094 9.621094 18.484375 10.472656 18.484375 11.523438 C 18.484375 11.710938 18.332031 11.859375 18.140625 11.859375 "/><path style=" stroke:none;fill-rule:nonzero;fill:rgb(0%,0%,0%);fill-opacity:1;" d="M 24.464844 11.859375 C 24.277344 11.859375 24.125 11.710938 24.125 11.523438 C 24.125 10.847656 23.566406 10.296875 22.886719 10.296875 C 22.203125 10.296875 21.644531 10.847656 21.644531 11.523438 C 21.644531 11.710938 21.492188 11.859375 21.304688 11.859375 C 21.113281 11.859375 20.960938 11.710938 20.960938 11.523438 C 20.960938 10.847656 20.40625 10.296875 19.722656 10.296875 C 19.039062 10.296875 18.484375 10.847656 18.484375 11.523438 C 18.484375 11.710938 18.332031 11.859375 18.140625 11.859375 C 17.953125 11.859375 17.800781 11.710938 17.800781 11.523438 C 17.800781 10.472656 18.664062 9.621094 19.722656 9.621094 C 20.378906 9.621094 20.957031 9.945312 21.304688 10.441406 C 21.652344 9.945312 22.230469 9.621094 22.886719 9.621094 C 23.945312 9.621094 24.808594 10.472656 24.808594 11.523438 C 24.808594 11.710938 24.65625 11.859375 24.464844 11.859375 "/><path style=" stroke:none;fill-rule:nonzero;fill:rgb(0%,0%,0%);fill-opacity:1;" d="M 8.558594 17.960938 L 21.441406 17.960938 L 21.441406 16.804688 L 8.558594 16.804688 Z M 21.785156 18.636719 L 8.214844 18.636719 C 8.027344 18.636719 7.875 18.488281 7.875 18.300781 L 7.875 16.464844 C 7.875 16.277344 8.027344 16.125 8.214844 16.125 L 21.785156 16.125 C 21.972656 16.125 22.125 16.277344 22.125 16.464844 L 22.125 18.300781 C 22.125 18.488281 21.972656 18.636719 21.785156 18.636719 "/><g clip-rule="nonzero" clip-path="url(#clip8)"><path style=" stroke:none;fill-rule:nonzero;fill:rgb(0%,0%,0%);fill-opacity:1;" d="M 12.414062 26.332031 L 17.585938 26.332031 C 17.488281 25.679688 16.917969 25.175781 16.234375 25.175781 L 13.765625 25.175781 C 13.082031 25.175781 12.511719 25.679688 12.414062 26.332031 Z M 17.941406 27.007812 L 12.058594 27.007812 C 11.871094 27.007812 11.71875 26.859375 11.71875 26.671875 L 11.71875 26.527344 C 11.71875 25.40625 12.636719 24.496094 13.765625 24.496094 L 16.234375 24.496094 C 17.363281 24.496094 18.28125 25.40625 18.28125 26.527344 L 18.28125 26.671875 C 18.28125 26.859375 18.128906 27.007812 17.941406 27.007812 "/></g><path style=" stroke:none;fill-rule:nonzero;fill:rgb(0%,0%,0%);fill-opacity:1;" d="M 15.855469 25.175781 L 14.144531 25.175781 C 13.953125 25.175781 13.800781 25.023438 13.800781 24.835938 L 13.800781 18.300781 C 13.800781 18.113281 13.953125 17.960938 14.144531 17.960938 C 14.332031 17.960938 14.484375 18.113281 14.484375 18.300781 L 14.484375 24.496094 L 15.511719 24.496094 L 15.511719 18.300781 C 15.511719 18.113281 15.667969 17.960938 15.855469 17.960938 C 16.046875 17.960938 16.199219 18.113281 16.199219 18.300781 L 16.199219 24.835938 C 16.199219 25.023438 16.046875 25.175781 15.855469 25.175781 "/><g clip-rule="nonzero" clip-path="url(#clip9)"><path style=" stroke:none;fill-rule:nonzero;fill:rgb(0%,0%,0%);fill-opacity:1;" d="M 1.199219 22.128906 L 7.453125 22.128906 L 7.453125 21.089844 L 1.199219 21.089844 Z M 7.792969 22.804688 L 0.855469 22.804688 C 0.667969 22.804688 0.511719 22.652344 0.511719 22.464844 L 0.511719 20.753906 C 0.511719 20.566406 0.667969 20.414062 0.855469 20.414062 L 7.792969 20.414062 C 7.984375 20.414062 8.136719 20.566406 8.136719 20.753906 L 8.136719 22.464844 C 8.136719 22.652344 7.984375 22.804688 7.792969 22.804688 "/></g><g clip-rule="nonzero" clip-path="url(#clip10)"><path style=" stroke:none;fill-rule:nonzero;fill:rgb(0%,0%,0%);fill-opacity:1;" d="M 1.199219 20.414062 L 2.246094 20.414062 L 2.246094 15.9375 L 1.199219 15.9375 Z M 2.585938 21.089844 L 0.855469 21.089844 C 0.667969 21.089844 0.511719 20.941406 0.511719 20.753906 L 0.511719 15.597656 C 0.511719 15.410156 0.667969 15.261719 0.855469 15.261719 L 2.585938 15.261719 C 2.777344 15.261719 2.929688 15.410156 2.929688 15.597656 L 2.929688 20.753906 C 2.929688 20.941406 2.777344 21.089844 2.585938 21.089844 "/></g><g clip-rule="nonzero" clip-path="url(#clip11)"><path style=" stroke:none;fill-rule:nonzero;fill:rgb(0%,0%,0%);fill-opacity:1;" d="M 1.199219 26.332031 L 2.246094 26.332031 L 2.246094 22.804688 L 1.199219 22.804688 Z M 2.585938 27.007812 L 0.855469 27.007812 C 0.667969 27.007812 0.511719 26.859375 0.511719 26.671875 L 0.511719 22.464844 C 0.511719 22.277344 0.667969 22.128906 0.855469 22.128906 L 2.585938 22.128906 C 2.777344 22.128906 2.929688 22.277344 2.929688 22.464844 L 2.929688 26.671875 C 2.929688 26.859375 2.777344 27.007812 2.585938 27.007812 "/></g><g clip-rule="nonzero" clip-path="url(#clip12)"><path style=" stroke:none;fill-rule:nonzero;fill:rgb(0%,0%,0%);fill-opacity:1;" d="M 6.40625 26.332031 L 7.453125 26.332031 L 7.453125 22.804688 L 6.40625 22.804688 Z M 7.792969 27.007812 L 6.0625 27.007812 C 5.875 27.007812 5.722656 26.859375 5.722656 26.671875 L 5.722656 22.464844 C 5.722656 22.277344 5.875 22.128906 6.0625 22.128906 L 7.792969 22.128906 C 7.984375 22.128906 8.136719 22.277344 8.136719 22.464844 L 8.136719 26.671875 C 8.136719 26.859375 7.984375 27.007812 7.792969 27.007812 "/></g><g clip-rule="nonzero" clip-path="url(#clip13)"><path style=" stroke:none;fill-rule:nonzero;fill:rgb(0%,0%,0%);fill-opacity:1;" d="M 22.546875 22.128906 L 28.800781 22.128906 L 28.800781 21.089844 L 22.546875 21.089844 Z M 29.144531 22.804688 L 22.207031 22.804688 C 22.015625 22.804688 21.863281 22.652344 21.863281 22.464844 L 21.863281 20.753906 C 21.863281 20.566406 22.015625 20.414062 22.207031 20.414062 L 29.144531 20.414062 C 29.332031 20.414062 29.484375 20.566406 29.484375 20.753906 L 29.484375 22.464844 C 29.484375 22.652344 29.332031 22.804688 29.144531 22.804688 "/></g><g clip-rule="nonzero" clip-path="url(#clip14)"><path style=" stroke:none;fill-rule:nonzero;fill:rgb(0%,0%,0%);fill-opacity:1;" d="M 27.753906 20.414062 L 28.800781 20.414062 L 28.800781 15.9375 L 27.753906 15.9375 Z M 29.144531 21.089844 L 27.414062 21.089844 C 27.222656 21.089844 27.070312 20.941406 27.070312 20.753906 L 27.070312 15.597656 C 27.070312 15.410156 27.222656 15.261719 27.414062 15.261719 L 29.144531 15.261719 C 29.332031 15.261719 29.484375 15.410156 29.484375 15.597656 L 29.484375 20.753906 C 29.484375 20.941406 29.332031 21.089844 29.144531 21.089844 "/></g><g clip-rule="nonzero" clip-path="url(#clip15)"><path style=" stroke:none;fill-rule:nonzero;fill:rgb(0%,0%,0%);fill-opacity:1;" d="M 27.753906 26.332031 L 28.800781 26.332031 L 28.800781 22.804688 L 27.753906 22.804688 Z M 29.144531 27.007812 L 27.414062 27.007812 C 27.222656 27.007812 27.070312 26.859375 27.070312 26.671875 L 27.070312 22.464844 C 27.070312 22.277344 27.222656 22.128906 27.414062 22.128906 L 29.144531 22.128906 C 29.332031 22.128906 29.484375 22.277344 29.484375 22.464844 L 29.484375 26.671875 C 29.484375 26.859375 29.332031 27.007812 29.144531 27.007812 "/></g><g clip-rule="nonzero" clip-path="url(#clip16)"><path style=" stroke:none;fill-rule:nonzero;fill:rgb(0%,0%,0%);fill-opacity:1;" d="M 22.546875 26.332031 L 23.59375 26.332031 L 23.59375 22.804688 L 22.546875 22.804688 Z M 23.9375 27.007812 L 22.207031 27.007812 C 22.015625 27.007812 21.863281 26.859375 21.863281 26.671875 L 21.863281 22.464844 C 21.863281 22.277344 22.015625 22.128906 22.207031 22.128906 L 23.9375 22.128906 C 24.125 22.128906 24.277344 22.277344 24.277344 22.464844 L 24.277344 26.671875 C 24.277344 26.859375 24.125 27.007812 23.9375 27.007812 "/></g></g></svg>