<?xml version="1.0" encoding="UTF-8"?><svg xmlns="http://www.w3.org/2000/svg" xmlns:xlink="http://www.w3.org/1999/xlink" contentScriptType="text/ecmascript" width="30pt" zoomAndPan="magnify" contentStyleType="text/css" viewBox="0 0 30 30.000001" height="30.000001pt" preserveAspectRatio="xMidYMid meet" version="1.2"><defs><clipPath xml:id="clip1" id="clip1"><path d="M 0.484375 0 L 29.515625 0 L 29.515625 29.03125 L 0.484375 29.03125 Z M 0.484375 0 "/></clipPath><clipPath xml:id="clip2" id="clip2"><path d="M 0.863281 13 L 6 13 L 6 19 L 0.863281 19 Z M 0.863281 13 "/></clipPath><clipPath xml:id="clip3" id="clip3"><path d="M 3 4.476562 L 27 4.476562 L 27 19 L 3 19 Z M 3 4.476562 "/></clipPath><clipPath xml:id="clip4" id="clip4"><path d="M 24 13 L 29.167969 13 L 29.167969 19 L 24 19 Z M 24 13 "/></clipPath><clipPath xml:id="clip5" id="clip5"><path d="M 0.90625 18.84375 L 29.160156 18.84375 L 29.160156 24.800781 L 0.90625 24.800781 Z M 0.90625 18.84375 "/></clipPath></defs><g xml:id="surface1" id="surface1"><g clip-rule="nonzero" clip-path="url(#clip1)"><path style=" stroke:none;fill-rule:nonzero;fill:rgb(100%,100%,100%);fill-opacity:1;" d="M 0.484375 0 L 29.515625 0 L 29.515625 29.03125 L 0.484375 29.03125 Z M 0.484375 0 "/><path style=" stroke:none;fill-rule:nonzero;fill:rgb(100%,100%,100%);fill-opacity:1;" d="M 0.484375 0 L 29.515625 0 L 29.515625 29.03125 L 0.484375 29.03125 Z M 0.484375 0 "/></g><g clip-rule="nonzero" clip-path="url(#clip2)"><path style=" stroke:none;fill-rule:nonzero;fill:rgb(0%,0%,0%);fill-opacity:1;" d="M 1.449219 15.894531 C 1.449219 14.894531 2.164062 13.992188 3.140625 13.90625 C 3.199219 13.898438 3.253906 13.898438 3.308594 13.898438 C 4.332031 13.898438 5.164062 14.746094 5.164062 15.796875 L 5.164062 17.675781 C 5.164062 17.773438 5.085938 17.855469 4.992188 17.855469 L 1.625 17.855469 C 1.527344 17.855469 1.449219 17.773438 1.449219 17.675781 Z M 1.625 18.410156 L 4.992188 18.410156 C 5.386719 18.410156 5.707031 18.082031 5.707031 17.675781 L 5.707031 15.796875 C 5.707031 14.441406 4.632812 13.34375 3.308594 13.34375 C 3.238281 13.34375 3.164062 13.34375 3.09375 13.351562 C 1.867188 13.460938 0.90625 14.578125 0.90625 15.894531 L 0.90625 17.675781 C 0.90625 18.082031 1.230469 18.410156 1.625 18.410156 "/></g><g clip-rule="nonzero" clip-path="url(#clip3)"><path style=" stroke:none;fill-rule:nonzero;fill:rgb(0%,0%,0%);fill-opacity:1;" d="M 4.234375 10.195312 C 4.234375 7.34375 6.496094 5.035156 9.285156 5.035156 L 20.78125 5.035156 C 23.566406 5.035156 25.828125 7.34375 25.828125 10.195312 L 25.828125 12.015625 C 25.828125 12.078125 25.789062 12.132812 25.726562 12.152344 C 24.179688 12.609375 23.042969 14.066406 23.042969 15.796875 L 23.042969 17.675781 C 23.042969 17.773438 22.964844 17.855469 22.867188 17.855469 L 7.195312 17.855469 C 7.101562 17.855469 7.023438 17.773438 7.023438 17.675781 L 7.023438 15.796875 C 7.023438 14.066406 5.886719 12.609375 4.335938 12.152344 C 4.277344 12.132812 4.234375 12.078125 4.234375 12.015625 Z M 4.1875 12.683594 C 5.535156 13.085938 6.480469 14.363281 6.480469 15.796875 L 6.480469 17.675781 C 6.480469 18.082031 6.800781 18.410156 7.195312 18.410156 L 22.867188 18.410156 C 23.265625 18.410156 23.585938 18.082031 23.585938 17.675781 L 23.585938 15.796875 C 23.585938 14.363281 24.527344 13.085938 25.878906 12.683594 C 26.167969 12.597656 26.371094 12.324219 26.371094 12.015625 L 26.371094 10.195312 C 26.371094 7.042969 23.863281 4.476562 20.78125 4.476562 L 9.285156 4.476562 C 6.203125 4.476562 3.691406 7.042969 3.691406 10.195312 L 3.691406 12.015625 C 3.691406 12.324219 3.894531 12.597656 4.1875 12.683594 "/></g><g clip-rule="nonzero" clip-path="url(#clip4)"><path style=" stroke:none;fill-rule:nonzero;fill:rgb(0%,0%,0%);fill-opacity:1;" d="M 28.613281 17.675781 C 28.613281 17.773438 28.535156 17.855469 28.441406 17.855469 L 25.074219 17.855469 C 24.976562 17.855469 24.898438 17.773438 24.898438 17.675781 L 24.898438 15.894531 C 24.898438 14.894531 25.617188 13.992188 26.589844 13.90625 C 26.648438 13.898438 26.703125 13.898438 26.757812 13.898438 C 27.785156 13.898438 28.613281 14.746094 28.613281 15.796875 Z M 26.757812 13.34375 C 26.6875 13.34375 26.617188 13.34375 26.542969 13.351562 C 25.316406 13.460938 24.355469 14.578125 24.355469 15.894531 L 24.355469 17.675781 C 24.355469 18.082031 24.679688 18.410156 25.074219 18.410156 L 28.441406 18.410156 C 28.835938 18.410156 29.160156 18.082031 29.160156 17.675781 L 29.160156 15.796875 C 29.160156 14.441406 28.082031 13.34375 26.757812 13.34375 "/></g><g clip-rule="nonzero" clip-path="url(#clip5)"><path style=" stroke:none;fill-rule:nonzero;fill:rgb(0%,0%,0%);fill-opacity:1;" d="M 28.613281 23.175781 C 28.613281 23.273438 28.535156 23.355469 28.441406 23.355469 L 23.566406 23.355469 C 23.46875 23.355469 23.390625 23.433594 23.390625 23.53125 L 23.390625 24.324219 C 23.390625 24.421875 23.3125 24.503906 23.21875 24.503906 L 21.242188 24.503906 C 21.148438 24.503906 21.070312 24.421875 21.070312 24.324219 L 21.070312 23.53125 C 21.070312 23.433594 20.992188 23.355469 20.894531 23.355469 L 9.171875 23.355469 C 9.074219 23.355469 8.996094 23.433594 8.996094 23.53125 L 8.996094 24.324219 C 8.996094 24.421875 8.917969 24.503906 8.820312 24.503906 L 6.847656 24.503906 C 6.753906 24.503906 6.675781 24.421875 6.675781 24.324219 L 6.675781 23.53125 C 6.675781 23.433594 6.597656 23.355469 6.5 23.355469 L 1.625 23.355469 C 1.527344 23.355469 1.449219 23.273438 1.449219 23.175781 L 1.449219 19.613281 C 1.449219 19.515625 1.527344 19.4375 1.625 19.4375 L 28.441406 19.4375 C 28.535156 19.4375 28.613281 19.515625 28.613281 19.613281 Z M 28.441406 18.882812 L 1.625 18.882812 C 1.230469 18.882812 0.90625 19.210938 0.90625 19.613281 L 0.90625 23.175781 C 0.90625 23.582031 1.230469 23.910156 1.625 23.910156 L 6.132812 23.910156 L 6.132812 24.324219 C 6.132812 24.726562 6.453125 25.058594 6.847656 25.058594 L 8.820312 25.058594 C 9.21875 25.058594 9.539062 24.726562 9.539062 24.324219 L 9.539062 23.910156 L 20.527344 23.910156 L 20.527344 24.324219 C 20.527344 24.726562 20.847656 25.058594 21.242188 25.058594 L 23.21875 25.058594 C 23.613281 25.058594 23.933594 24.726562 23.933594 24.324219 L 23.933594 23.910156 L 28.441406 23.910156 C 28.835938 23.910156 29.160156 23.582031 29.160156 23.175781 L 29.160156 19.613281 C 29.160156 19.210938 28.835938 18.882812 28.441406 18.882812 "/></g></g></svg>