<?xml version="1.0" encoding="UTF-8"?><svg xmlns="http://www.w3.org/2000/svg" xmlns:xlink="http://www.w3.org/1999/xlink" contentScriptType="text/ecmascript" width="30pt" zoomAndPan="magnify" contentStyleType="text/css" viewBox="0 0 30 30.000001" height="30.000001pt" preserveAspectRatio="xMidYMid meet" version="1.2"><defs><clipPath xml:id="clip1" id="clip1"><path d="M 0.484375 0 L 29.515625 0 L 29.515625 29.03125 L 0.484375 29.03125 Z M 0.484375 0 "/></clipPath><clipPath xml:id="clip2" id="clip2"><path d="M 2 0 L 27.691406 0 L 27.691406 29.03125 L 2 29.03125 Z M 2 0 "/></clipPath></defs><g xml:id="surface1" id="surface1"><g clip-rule="nonzero" clip-path="url(#clip1)"><path style=" stroke:none;fill-rule:nonzero;fill:rgb(100%,100%,100%);fill-opacity:1;" d="M 0.484375 0 L 29.515625 0 L 29.515625 29.03125 L 0.484375 29.03125 Z M 0.484375 0 "/><path style=" stroke:none;fill-rule:nonzero;fill:rgb(100%,100%,100%);fill-opacity:1;" d="M 0.484375 0 L 29.515625 0 L 29.515625 29.03125 L 0.484375 29.03125 Z M 0.484375 0 "/></g><g clip-rule="nonzero" clip-path="url(#clip2)"><path style=" stroke:none;fill-rule:nonzero;fill:rgb(6.269836%,5.879211%,5.099487%);fill-opacity:1;" d="M 14.625 11.222656 C 16.410156 11.164062 17.902344 12.597656 17.953125 14.421875 C 17.957031 14.453125 17.957031 14.484375 17.957031 14.515625 C 17.957031 16.339844 16.511719 17.816406 14.726562 17.824219 C 12.933594 17.824219 11.484375 16.355469 11.476562 14.53125 C 11.476562 14.527344 11.476562 14.519531 11.476562 14.515625 C 11.484375 12.734375 12.875 11.269531 14.625 11.222656 Z M 14.066406 0 L 14.066406 2.648438 L 12.933594 1.488281 L 12.136719 2.542969 L 14.066406 4.515625 L 14.066406 6.382812 L 11.332031 3.585938 L 10.53125 4.644531 L 14.066406 8.246094 L 14.066406 9.945312 C 12.917969 10.113281 11.878906 10.726562 11.15625 11.660156 L 9.71875 10.808594 L 8.421875 5.886719 L 7.128906 6.0625 L 8.128906 9.875 L 6.542969 8.945312 L 5.832031 6.246094 L 4.542969 6.429688 L 4.957031 8.011719 L 2.707031 6.6875 L 2.058594 7.832031 L 4.3125 9.15625 L 2.757812 9.578125 L 3.25 10.808594 L 5.894531 10.089844 L 7.480469 11.019531 L 3.746094 12.042969 L 4.230469 13.273438 L 9.070312 11.953125 L 10.507812 12.804688 C 10.078125 13.902344 10.078125 15.128906 10.507812 16.234375 L 9.070312 17.078125 L 4.230469 15.757812 L 3.746094 16.992188 L 7.480469 18.011719 L 5.894531 18.945312 L 3.25 18.222656 L 2.757812 19.453125 L 4.3125 19.878906 L 2.058594 21.203125 L 2.707031 22.347656 L 4.957031 21.023438 L 4.542969 22.605469 L 5.832031 22.785156 L 6.542969 20.089844 L 8.128906 19.15625 L 7.128906 22.96875 L 8.421875 23.152344 L 9.71875 18.222656 L 11.15625 17.378906 C 11.878906 18.304688 12.917969 18.917969 14.066406 19.089844 L 14.066406 20.785156 L 10.53125 24.386719 L 11.332031 25.445312 L 14.066406 22.652344 L 14.066406 24.515625 L 12.136719 26.492188 L 12.933594 27.542969 L 14.066406 26.382812 L 14.066406 29.03125 L 15.367188 29.03125 L 15.367188 26.382812 L 16.5 27.542969 L 17.304688 26.492188 L 15.367188 24.515625 L 15.367188 22.652344 L 18.105469 25.445312 L 18.902344 24.386719 L 15.367188 20.785156 L 15.367188 19.089844 C 16.515625 18.917969 17.558594 18.304688 18.28125 17.378906 L 19.722656 18.222656 L 21.015625 23.152344 L 22.3125 22.96875 L 21.304688 19.15625 L 22.894531 20.089844 L 23.601562 22.785156 L 24.894531 22.605469 L 24.476562 21.023438 L 26.726562 22.347656 L 27.375 21.203125 L 25.125 19.878906 L 26.675781 19.453125 L 26.1875 18.222656 L 23.539062 18.945312 L 21.953125 18.011719 L 25.695312 16.992188 L 25.199219 15.757812 L 20.371094 17.078125 L 18.929688 16.234375 C 19.359375 15.128906 19.359375 13.902344 18.929688 12.804688 L 20.371094 11.953125 L 25.199219 13.273438 L 25.695312 12.042969 L 21.953125 11.019531 L 23.539062 10.089844 L 26.1875 10.808594 L 26.675781 9.578125 L 25.125 9.15625 L 27.375 7.832031 L 26.726562 6.6875 L 24.476562 8.011719 L 24.894531 6.429688 L 23.601562 6.246094 L 22.894531 8.945312 L 21.304688 9.875 L 22.3125 6.0625 L 21.015625 5.886719 L 19.722656 10.808594 L 18.28125 11.660156 C 17.558594 10.726562 16.515625 10.113281 15.367188 9.945312 L 15.367188 8.246094 L 18.902344 4.644531 L 18.105469 3.585938 L 15.367188 6.382812 L 15.367188 4.515625 L 17.304688 2.542969 L 16.5 1.488281 L 15.367188 2.648438 L 15.367188 0 L 14.066406 0 "/></g></g></svg>