<?xml version="1.0" encoding="UTF-8"?><svg xmlns="http://www.w3.org/2000/svg" xmlns:xlink="http://www.w3.org/1999/xlink" contentScriptType="text/ecmascript" width="30pt" zoomAndPan="magnify" contentStyleType="text/css" viewBox="0 0 30 30.000001" height="30.000001pt" preserveAspectRatio="xMidYMid meet" version="1.2"><defs><clipPath xml:id="clip1" id="clip1"><path d="M 0.484375 0 L 29.515625 0 L 29.515625 29.03125 L 0.484375 29.03125 Z M 0.484375 0 "/></clipPath><clipPath xml:id="clip2" id="clip2"><path d="M 0.601562 11 L 29.386719 11 L 29.386719 28.585938 L 0.601562 28.585938 Z M 0.601562 11 "/></clipPath><clipPath xml:id="clip3" id="clip3"><path d="M 12 0.34375 L 17 0.34375 L 17 11 L 12 11 Z M 12 0.34375 "/></clipPath></defs><g xml:id="surface1" id="surface1"><g clip-rule="nonzero" clip-path="url(#clip1)"><path style=" stroke:none;fill-rule:nonzero;fill:rgb(100%,100%,100%);fill-opacity:1;" d="M 0.484375 0 L 29.515625 0 L 29.515625 29.03125 L 0.484375 29.03125 Z M 0.484375 0 "/><path style=" stroke:none;fill-rule:nonzero;fill:rgb(100%,100%,100%);fill-opacity:1;" d="M 0.484375 0 L 29.515625 0 L 29.515625 29.03125 L 0.484375 29.03125 Z M 0.484375 0 "/></g><g clip-rule="nonzero" clip-path="url(#clip2)"><path style=" stroke:none;fill-rule:nonzero;fill:rgb(6.269836%,5.879211%,5.099487%);fill-opacity:1;" d="M 23.570312 12.257812 C 24.554688 12.21875 25.378906 12.988281 25.417969 13.96875 C 25.417969 13.988281 25.417969 14.003906 25.417969 14.019531 L 25.417969 26.179688 C 25.410156 27.164062 24.609375 27.957031 23.621094 27.949219 C 22.648438 27.941406 21.855469 27.152344 21.851562 26.179688 L 21.851562 14.019531 C 21.855469 13.070312 22.617188 12.292969 23.570312 12.257812 Z M 14.757812 12.257812 C 15.742188 12.21875 16.566406 12.988281 16.605469 13.96875 C 16.605469 13.988281 16.605469 14.003906 16.605469 14.019531 L 16.605469 26.179688 C 16.597656 27.164062 15.796875 27.957031 14.808594 27.949219 C 13.835938 27.941406 13.042969 27.152344 13.039062 26.179688 L 13.039062 14.019531 C 13.042969 13.070312 13.800781 12.292969 14.757812 12.257812 Z M 5.945312 12.257812 C 6.929688 12.21875 7.757812 12.988281 7.789062 13.96875 C 7.792969 13.988281 7.792969 14.007812 7.792969 14.019531 L 7.792969 26.179688 C 7.785156 27.164062 6.980469 27.957031 5.996094 27.949219 C 5.019531 27.941406 4.230469 27.152344 4.226562 26.179688 L 4.226562 14.019531 C 4.230469 13.070312 4.992188 12.292969 5.945312 12.257812 Z M 19.175781 12.242188 C 20.160156 12.214844 20.984375 12.984375 21.011719 13.96875 C 21.011719 13.984375 21.011719 14.003906 21.011719 14.019531 L 21.011719 26.179688 C 21 27.160156 20.191406 27.949219 19.207031 27.9375 C 18.238281 27.925781 17.457031 27.148438 17.445312 26.179688 L 17.445312 14.019531 C 17.445312 13.058594 18.210938 12.269531 19.175781 12.242188 Z M 10.363281 12.242188 C 11.347656 12.214844 12.167969 12.984375 12.199219 13.96875 C 12.199219 13.984375 12.199219 14.003906 12.199219 14.019531 L 12.199219 26.179688 C 12.1875 27.160156 11.378906 27.949219 10.394531 27.9375 C 9.425781 27.925781 8.640625 27.148438 8.632812 26.179688 L 8.632812 14.019531 C 8.632812 13.058594 9.398438 12.269531 10.363281 12.242188 Z M 28.46875 11.386719 C 28 11.40625 27.621094 11.789062 27.621094 12.257812 L 27.621094 14.699219 L 26.046875 14.699219 L 26.046875 14.019531 C 26.046875 12.691406 24.964844 11.617188 23.632812 11.617188 C 22.679688 11.617188 21.820312 12.175781 21.433594 13.046875 C 20.894531 11.832031 19.46875 11.285156 18.253906 11.824219 C 17.703125 12.066406 17.269531 12.5 17.023438 13.046875 C 16.484375 11.832031 15.0625 11.285156 13.84375 11.824219 C 13.296875 12.066406 12.859375 12.5 12.617188 13.046875 C 12.078125 11.832031 10.65625 11.285156 9.4375 11.824219 C 8.890625 12.066406 8.453125 12.5 8.210938 13.046875 C 7.671875 11.832031 6.25 11.285156 5.03125 11.824219 C 4.160156 12.207031 3.601562 13.070312 3.601562 14.019531 L 3.601562 14.699219 L 1.472656 14.699219 C 0.984375 14.707031 0.59375 15.109375 0.601562 15.59375 C 0.609375 16.070312 0.992188 16.453125 1.472656 16.460938 L 3.601562 16.460938 L 3.601562 26.179688 C 3.601562 27.507812 4.679688 28.585938 6.007812 28.585938 C 6.960938 28.585938 7.824219 28.023438 8.210938 27.152344 C 8.75 28.367188 10.175781 28.917969 11.390625 28.378906 C 11.941406 28.136719 12.375 27.699219 12.617188 27.152344 C 13.15625 28.367188 14.582031 28.917969 15.796875 28.378906 C 16.34375 28.136719 16.78125 27.699219 17.023438 27.152344 C 17.5625 28.367188 18.988281 28.917969 20.207031 28.378906 C 20.753906 28.136719 21.191406 27.699219 21.433594 27.152344 C 21.972656 28.367188 23.394531 28.917969 24.609375 28.378906 C 25.484375 27.992188 26.046875 27.132812 26.046875 26.179688 L 26.046875 16.460938 L 28.710938 16.460938 C 29.085938 16.460938 29.386719 16.160156 29.386719 15.785156 L 29.386719 12.257812 C 29.382812 11.773438 28.984375 11.382812 28.496094 11.386719 C 28.488281 11.386719 28.476562 11.386719 28.46875 11.386719 "/></g><path style=" stroke:none;fill-rule:nonzero;fill:rgb(6.269836%,5.879211%,5.099487%);fill-opacity:1;" d="M 20.308594 9.015625 C 20.382812 8.914062 20.394531 8.78125 20.332031 8.671875 C 20.136719 8.332031 20.019531 7.953125 20.003906 7.5625 C 19.859375 6.839844 20.082031 6.089844 20.589844 5.558594 C 21.234375 4.496094 21.414062 3.21875 21.078125 2.023438 C 20.863281 1.367188 20.15625 1.011719 19.5 1.226562 C 19.496094 1.230469 19.496094 1.230469 19.492188 1.230469 C 19.296875 1.320312 19.210938 1.554688 19.304688 1.75 C 19.304688 1.753906 19.304688 1.757812 19.308594 1.761719 C 19.910156 2.675781 19.8125 3.871094 19.082031 4.679688 C 18.515625 5.4375 18.222656 6.359375 18.25 7.300781 C 18.273438 8.101562 18.730469 8.824219 19.4375 9.195312 C 19.734375 9.363281 20.109375 9.285156 20.316406 9.015625 L 20.308594 9.015625 "/><g clip-rule="nonzero" clip-path="url(#clip3)"><path style=" stroke:none;fill-rule:nonzero;fill:rgb(6.269836%,5.879211%,5.099487%);fill-opacity:1;" d="M 15.210938 9.640625 C 15.101562 9.417969 15.015625 9.179688 14.964844 8.929688 C 14.699219 8.046875 14.871094 7.089844 15.425781 6.355469 C 16.039062 5.625 16.417969 4.726562 16.515625 3.78125 C 16.644531 2.902344 16.519531 2.003906 16.15625 1.191406 C 15.855469 0.617188 15.179688 0.335938 14.5625 0.542969 C 14.398438 0.59375 14.3125 0.769531 14.367188 0.933594 C 14.367188 0.941406 14.371094 0.949219 14.375 0.960938 C 14.921875 2.1875 14.839844 3.605469 14.144531 4.757812 C 13.417969 5.746094 13.019531 6.933594 13.011719 8.160156 C 12.875 9.183594 13.480469 10.164062 14.457031 10.5 C 14.78125 10.609375 15.128906 10.441406 15.242188 10.117188 C 15.296875 9.964844 15.285156 9.789062 15.210938 9.640625 "/></g><path style=" stroke:none;fill-rule:nonzero;fill:rgb(6.269836%,5.879211%,5.099487%);fill-opacity:1;" d="M 9.914062 1.230469 C 9.714844 1.320312 9.632812 1.554688 9.722656 1.75 C 9.726562 1.753906 9.726562 1.757812 9.726562 1.761719 C 10.328125 2.675781 10.234375 3.875 9.5 4.679688 C 8.933594 5.4375 8.640625 6.359375 8.667969 7.300781 C 8.691406 8.101562 9.148438 8.824219 9.859375 9.195312 C 10.15625 9.363281 10.527344 9.285156 10.734375 9.015625 C 10.808594 8.914062 10.820312 8.78125 10.757812 8.671875 C 10.558594 8.332031 10.445312 7.953125 10.425781 7.5625 C 10.285156 6.839844 10.503906 6.089844 11.011719 5.558594 C 11.660156 4.496094 11.835938 3.21875 11.503906 2.023438 C 11.285156 1.371094 10.578125 1.011719 9.925781 1.226562 C 9.921875 1.230469 9.917969 1.230469 9.914062 1.230469 "/></g></svg>