<?xml version="1.0" encoding="UTF-8"?><svg xmlns="http://www.w3.org/2000/svg" xmlns:xlink="http://www.w3.org/1999/xlink" contentScriptType="text/ecmascript" width="30pt" zoomAndPan="magnify" contentStyleType="text/css" viewBox="0 0 30 30.000001" height="30.000001pt" preserveAspectRatio="xMidYMid meet" version="1.2"><defs><clipPath xml:id="clip1" id="clip1"><path d="M 0.484375 0 L 29.515625 0 L 29.515625 29.03125 L 0.484375 29.03125 Z M 0.484375 0 "/></clipPath><clipPath xml:id="clip2" id="clip2"><path d="M 12 21 L 18 21 L 18 27.328125 L 12 27.328125 Z M 12 21 "/></clipPath><clipPath xml:id="clip3" id="clip3"><path d="M 0.484375 4 L 29.515625 4 L 29.515625 12 L 0.484375 12 Z M 0.484375 4 "/></clipPath></defs><g xml:id="surface1" id="surface1"><g clip-rule="nonzero" clip-path="url(#clip1)"><path style=" stroke:none;fill-rule:nonzero;fill:rgb(100%,100%,100%);fill-opacity:1;" d="M 0.484375 0 L 29.515625 0 L 29.515625 29.03125 L 0.484375 29.03125 Z M 0.484375 0 "/><path style=" stroke:none;fill-rule:nonzero;fill:rgb(100%,100%,100%);fill-opacity:1;" d="M 0.484375 0 L 29.515625 0 L 29.515625 29.03125 L 0.484375 29.03125 Z M 0.484375 0 "/></g><g clip-rule="nonzero" clip-path="url(#clip2)"><path style=" stroke:none;fill-rule:nonzero;fill:rgb(0%,0%,0%);fill-opacity:1;" d="M 15.027344 21.867188 C 14.296875 21.867188 13.609375 22.15625 13.09375 22.683594 C 12.027344 23.765625 12.027344 25.535156 13.09375 26.617188 C 13.609375 27.144531 14.296875 27.433594 15.027344 27.433594 C 15.757812 27.433594 16.445312 27.144531 16.960938 26.617188 C 18.027344 25.535156 18.027344 23.765625 16.960938 22.683594 C 16.445312 22.15625 15.757812 21.867188 15.027344 21.867188 Z M 16.1875 25.832031 C 15.566406 26.460938 14.488281 26.460938 13.867188 25.832031 C 13.226562 25.179688 13.226562 24.121094 13.867188 23.46875 C 14.175781 23.152344 14.589844 22.980469 15.027344 22.980469 C 15.464844 22.980469 15.878906 23.152344 16.1875 23.46875 C 16.828125 24.121094 16.828125 25.179688 16.1875 25.832031 Z M 16.1875 25.832031 "/></g><path style=" stroke:none;fill-rule:nonzero;fill:rgb(0%,0%,0%);fill-opacity:1;" d="M 15.027344 15.183594 C 12.546875 15.183594 10.210938 16.171875 8.453125 17.957031 C 8.242188 18.175781 8.242188 18.527344 8.453125 18.746094 C 8.667969 18.964844 9.015625 18.964844 9.226562 18.746094 C 10.777344 17.167969 12.839844 16.296875 15.027344 16.296875 C 17.214844 16.296875 19.277344 17.167969 20.824219 18.746094 C 20.933594 18.855469 21.074219 18.910156 21.210938 18.910156 C 21.351562 18.910156 21.492188 18.855469 21.597656 18.746094 C 21.8125 18.527344 21.8125 18.175781 21.597656 17.957031 C 19.84375 16.171875 17.507812 15.183594 15.027344 15.183594 Z M 15.027344 15.183594 "/><path style=" stroke:none;fill-rule:nonzero;fill:rgb(0%,0%,0%);fill-opacity:1;" d="M 15.027344 9.617188 C 11.085938 9.617188 7.378906 11.183594 4.589844 14.023438 C 4.375 14.242188 4.375 14.59375 4.589844 14.808594 C 4.800781 15.027344 5.148438 15.027344 5.363281 14.808594 C 7.945312 12.179688 11.378906 10.730469 15.027344 10.730469 C 18.675781 10.730469 22.109375 12.179688 24.691406 14.808594 C 24.800781 14.917969 24.9375 14.972656 25.078125 14.972656 C 25.21875 14.972656 25.359375 14.917969 25.464844 14.808594 C 25.679688 14.59375 25.679688 14.242188 25.464844 14.023438 C 22.675781 11.183594 18.96875 9.617188 15.027344 9.617188 Z M 15.027344 9.617188 "/><g clip-rule="nonzero" clip-path="url(#clip3)"><path style=" stroke:none;fill-rule:nonzero;fill:rgb(0%,0%,0%);fill-opacity:1;" d="M 0.722656 10.085938 C 0.507812 10.304688 0.507812 10.65625 0.722656 10.875 C 0.9375 11.089844 1.28125 11.089844 1.496094 10.875 C 8.957031 3.277344 21.097656 3.277344 28.558594 10.875 C 28.664062 10.980469 28.804688 11.035156 28.945312 11.035156 C 29.085938 11.035156 29.226562 10.980469 29.332031 10.875 C 29.546875 10.65625 29.546875 10.304688 29.332031 10.085938 C 21.445312 2.054688 8.609375 2.054688 0.722656 10.085938 Z M 0.722656 10.085938 "/></g></g></svg>