<?xml version="1.0" encoding="UTF-8"?><svg xmlns="http://www.w3.org/2000/svg" xmlns:xlink="http://www.w3.org/1999/xlink" contentScriptType="text/ecmascript" width="30pt" zoomAndPan="magnify" contentStyleType="text/css" viewBox="0 0 30 30.000001" height="30.000001pt" preserveAspectRatio="xMidYMid meet" version="1.2"><defs><clipPath xml:id="clip1" id="clip1"><path d="M 0.484375 0 L 29.515625 0 L 29.515625 29.03125 L 0.484375 29.03125 Z M 0.484375 0 "/></clipPath><clipPath xml:id="clip2" id="clip2"><path d="M 0.484375 13 L 29.515625 13 L 29.515625 29.03125 L 0.484375 29.03125 Z M 0.484375 13 "/></clipPath></defs><g xml:id="surface1" id="surface1"><g clip-rule="nonzero" clip-path="url(#clip1)"><path style=" stroke:none;fill-rule:nonzero;fill:rgb(100%,100%,100%);fill-opacity:1;" d="M 0.484375 0 L 29.515625 0 L 29.515625 29.03125 L 0.484375 29.03125 Z M 0.484375 0 "/><path style=" stroke:none;fill-rule:nonzero;fill:rgb(100%,100%,100%);fill-opacity:1;" d="M 0.484375 0 L 29.515625 0 L 29.515625 29.03125 L 0.484375 29.03125 Z M 0.484375 0 "/></g><g clip-rule="nonzero" clip-path="url(#clip2)"><path style=" stroke:none;fill-rule:nonzero;fill:rgb(0%,0%,0%);fill-opacity:1;" d="M 29.03125 24.195312 L 27.582031 24.195312 L 27.582031 23.226562 C 27.582031 23.121094 27.546875 23.019531 27.484375 22.933594 L 26.65625 21.835938 C 26.417969 21.511719 26.046875 21.328125 25.644531 21.328125 C 25.242188 21.328125 24.875 21.511719 24.632812 21.835938 L 23.804688 22.933594 C 23.742188 23.019531 23.710938 23.121094 23.710938 23.226562 L 23.710938 24.195312 L 22.742188 24.195312 L 22.742188 19.328125 C 22.820312 19.339844 22.902344 19.355469 22.984375 19.355469 C 23.917969 19.355469 24.675781 18.589844 24.675781 17.648438 C 24.675781 17.550781 24.667969 17.449219 24.652344 17.351562 C 24.976562 17.035156 25.160156 16.601562 25.160156 16.136719 C 25.160156 15.292969 24.550781 14.59375 23.75 14.457031 C 23.460938 13.910156 22.890625 13.546875 22.261719 13.546875 C 21.632812 13.546875 21.0625 13.90625 20.769531 14.457031 C 19.96875 14.589844 19.355469 15.292969 19.355469 16.136719 C 19.355469 16.601562 19.539062 17.035156 19.863281 17.351562 C 19.847656 17.449219 19.839844 17.550781 19.839844 17.648438 C 19.839844 18.589844 20.597656 19.355469 21.53125 19.355469 C 21.613281 19.355469 21.695312 19.339844 21.773438 19.328125 L 21.773438 24.195312 L 20.324219 24.195312 L 20.324219 23.226562 C 20.324219 23.121094 20.289062 23.019531 20.226562 22.933594 L 19.398438 21.835938 C 19.160156 21.511719 18.789062 21.328125 18.386719 21.328125 C 17.984375 21.328125 17.617188 21.511719 17.375 21.835938 L 16.546875 22.933594 C 16.484375 23.019531 16.453125 23.121094 16.453125 23.226562 L 16.453125 24.195312 L 15.484375 24.195312 L 15.484375 19.328125 C 15.5625 19.339844 15.644531 19.355469 15.726562 19.355469 C 16.660156 19.355469 17.417969 18.589844 17.417969 17.648438 C 17.417969 17.550781 17.410156 17.449219 17.394531 17.351562 C 17.71875 17.035156 17.902344 16.601562 17.902344 16.136719 C 17.902344 15.292969 17.292969 14.59375 16.492188 14.457031 C 16.203125 13.910156 15.632812 13.546875 15.003906 13.546875 C 14.375 13.546875 13.804688 13.90625 13.511719 14.457031 C 12.710938 14.589844 12.097656 15.292969 12.097656 16.136719 C 12.097656 16.601562 12.28125 17.035156 12.605469 17.351562 C 12.589844 17.449219 12.582031 17.550781 12.582031 17.648438 C 12.582031 18.589844 13.339844 19.355469 14.273438 19.355469 C 14.355469 19.355469 14.4375 19.339844 14.515625 19.328125 L 14.515625 24.195312 L 13.066406 24.195312 L 13.066406 23.226562 C 13.066406 23.121094 13.03125 23.019531 12.96875 22.933594 L 12.140625 21.835938 C 11.898438 21.511719 11.53125 21.328125 11.128906 21.328125 C 10.726562 21.328125 10.359375 21.511719 10.117188 21.835938 L 9.289062 22.933594 C 9.226562 23.019531 9.195312 23.121094 9.195312 23.226562 L 9.195312 24.195312 L 8.226562 24.195312 L 8.226562 19.328125 C 8.304688 19.339844 8.386719 19.355469 8.46875 19.355469 C 9.402344 19.355469 10.160156 18.589844 10.160156 17.648438 C 10.160156 17.550781 10.152344 17.449219 10.136719 17.351562 C 10.460938 17.035156 10.644531 16.601562 10.644531 16.136719 C 10.644531 15.292969 10.035156 14.59375 9.234375 14.457031 C 8.945312 13.910156 8.375 13.546875 7.746094 13.546875 C 7.117188 13.546875 6.542969 13.90625 6.253906 14.457031 C 5.453125 14.589844 4.839844 15.292969 4.839844 16.136719 C 4.839844 16.601562 5.023438 17.035156 5.347656 17.351562 C 5.332031 17.449219 5.324219 17.550781 5.324219 17.648438 C 5.324219 18.589844 6.082031 19.355469 7.015625 19.355469 C 7.097656 19.355469 7.179688 19.339844 7.257812 19.328125 L 7.257812 24.195312 L 6.289062 24.195312 L 6.289062 23.226562 C 6.289062 23.121094 6.257812 23.019531 6.195312 22.933594 L 5.367188 21.835938 C 5.125 21.511719 4.757812 21.328125 4.355469 21.328125 C 3.953125 21.328125 3.582031 21.511719 3.34375 21.835938 L 2.515625 22.933594 C 2.453125 23.019531 2.417969 23.121094 2.417969 23.226562 L 2.417969 24.195312 L 0.96875 24.195312 C 0.699219 24.195312 0.484375 24.410156 0.484375 24.675781 L 0.484375 26.613281 C 0.484375 26.878906 0.699219 27.097656 0.96875 27.097656 L 2.417969 27.097656 L 2.417969 28.546875 C 2.417969 28.816406 2.636719 29.03125 2.902344 29.03125 L 5.804688 29.03125 C 6.074219 29.03125 6.289062 28.816406 6.289062 28.546875 L 6.289062 27.097656 L 9.195312 27.097656 L 9.195312 28.546875 C 9.195312 28.816406 9.410156 29.03125 9.675781 29.03125 L 12.582031 29.03125 C 12.847656 29.03125 13.066406 28.816406 13.066406 28.546875 L 13.066406 27.097656 L 16.453125 27.097656 L 16.453125 28.546875 C 16.453125 28.816406 16.667969 29.03125 16.933594 29.03125 L 19.839844 29.03125 C 20.105469 29.03125 20.324219 28.816406 20.324219 28.546875 L 20.324219 27.097656 L 23.710938 27.097656 L 23.710938 28.546875 C 23.710938 28.816406 23.925781 29.03125 24.195312 29.03125 L 27.097656 29.03125 C 27.363281 29.03125 27.582031 28.816406 27.582031 28.546875 L 27.582031 27.097656 L 29.03125 27.097656 C 29.300781 27.097656 29.515625 26.878906 29.515625 26.613281 L 29.515625 24.675781 C 29.515625 24.410156 29.300781 24.195312 29.03125 24.195312 Z M 21.53125 18.386719 C 21.132812 18.386719 20.808594 18.054688 20.808594 17.648438 C 20.808594 17.546875 20.824219 17.453125 20.863281 17.359375 C 20.953125 17.140625 20.875 16.890625 20.671875 16.765625 C 20.453125 16.628906 20.324219 16.394531 20.324219 16.136719 C 20.324219 15.730469 20.648438 15.398438 21.007812 15.398438 C 21.023438 15.398438 21.066406 15.40625 21.085938 15.40625 C 21.3125 15.414062 21.507812 15.269531 21.570312 15.050781 C 21.65625 14.738281 21.941406 14.515625 22.261719 14.515625 C 22.578125 14.515625 22.863281 14.738281 22.953125 15.050781 C 23.015625 15.269531 23.214844 15.410156 23.441406 15.402344 C 23.464844 15.402344 23.488281 15.402344 23.46875 15.398438 C 23.867188 15.398438 24.195312 15.730469 24.195312 16.136719 C 24.195312 16.394531 24.0625 16.628906 23.84375 16.765625 C 23.640625 16.890625 23.5625 17.140625 23.652344 17.359375 C 23.691406 17.449219 23.710938 17.546875 23.710938 17.648438 C 23.710938 18.054688 23.382812 18.386719 22.984375 18.386719 C 22.789062 18.386719 22.640625 18.304688 22.550781 18.234375 C 22.464844 18.167969 22.359375 18.136719 22.257812 18.136719 C 22.15625 18.136719 22.050781 18.167969 21.964844 18.234375 C 21.875 18.304688 21.726562 18.386719 21.53125 18.386719 Z M 14.273438 18.386719 C 13.875 18.386719 13.550781 18.054688 13.550781 17.648438 C 13.550781 17.546875 13.566406 17.453125 13.605469 17.359375 C 13.695312 17.140625 13.617188 16.890625 13.414062 16.765625 C 13.195312 16.628906 13.066406 16.394531 13.066406 16.136719 C 13.066406 15.730469 13.390625 15.398438 13.75 15.398438 C 13.765625 15.398438 13.808594 15.40625 13.828125 15.40625 C 14.050781 15.414062 14.25 15.269531 14.308594 15.050781 C 14.398438 14.738281 14.683594 14.515625 15.003906 14.515625 C 15.320312 14.515625 15.605469 14.738281 15.695312 15.050781 C 15.757812 15.269531 15.957031 15.410156 16.183594 15.402344 C 16.207031 15.402344 16.230469 15.402344 16.210938 15.398438 C 16.609375 15.398438 16.9375 15.730469 16.9375 16.136719 C 16.9375 16.394531 16.804688 16.628906 16.585938 16.765625 C 16.382812 16.890625 16.304688 17.140625 16.394531 17.359375 C 16.433594 17.449219 16.449219 17.546875 16.449219 17.648438 C 16.449219 18.054688 16.125 18.386719 15.726562 18.386719 C 15.53125 18.386719 15.382812 18.304688 15.292969 18.234375 C 15.207031 18.167969 15.101562 18.136719 15 18.136719 C 14.898438 18.136719 14.792969 18.167969 14.707031 18.234375 C 14.617188 18.304688 14.46875 18.386719 14.273438 18.386719 Z M 7.015625 18.386719 C 6.617188 18.386719 6.289062 18.054688 6.289062 17.648438 C 6.289062 17.546875 6.308594 17.453125 6.347656 17.359375 C 6.4375 17.140625 6.359375 16.890625 6.15625 16.765625 C 5.9375 16.628906 5.804688 16.394531 5.804688 16.136719 C 5.804688 15.730469 6.132812 15.398438 6.492188 15.398438 C 6.507812 15.398438 6.550781 15.40625 6.570312 15.40625 C 6.789062 15.414062 6.992188 15.269531 7.050781 15.050781 C 7.140625 14.738281 7.425781 14.515625 7.746094 14.515625 C 8.0625 14.515625 8.347656 14.738281 8.4375 15.050781 C 8.5 15.269531 8.703125 15.410156 8.925781 15.402344 C 8.949219 15.402344 8.972656 15.402344 8.953125 15.398438 C 9.351562 15.398438 9.679688 15.730469 9.679688 16.136719 C 9.679688 16.394531 9.546875 16.628906 9.328125 16.765625 C 9.125 16.890625 9.046875 17.140625 9.136719 17.359375 C 9.175781 17.449219 9.191406 17.546875 9.191406 17.648438 C 9.191406 18.054688 8.867188 18.386719 8.46875 18.386719 C 8.273438 18.386719 8.125 18.304688 8.035156 18.234375 C 7.949219 18.167969 7.84375 18.136719 7.742188 18.136719 C 7.640625 18.136719 7.535156 18.167969 7.449219 18.234375 C 7.359375 18.304688 7.210938 18.386719 7.015625 18.386719 Z M 28.546875 26.128906 L 27.097656 26.128906 C 26.828125 26.128906 26.613281 26.347656 26.613281 26.613281 L 26.613281 28.066406 L 24.675781 28.066406 L 24.675781 26.613281 C 24.675781 26.347656 24.460938 26.128906 24.195312 26.128906 L 19.839844 26.128906 C 19.570312 26.128906 19.355469 26.347656 19.355469 26.613281 L 19.355469 28.066406 L 17.417969 28.066406 L 17.417969 26.613281 C 17.417969 26.347656 17.203125 26.128906 16.933594 26.128906 L 12.582031 26.128906 C 12.3125 26.128906 12.097656 26.347656 12.097656 26.613281 L 12.097656 28.066406 L 10.160156 28.066406 L 10.160156 26.613281 C 10.160156 26.347656 9.945312 26.128906 9.675781 26.128906 L 5.804688 26.128906 C 5.539062 26.128906 5.324219 26.347656 5.324219 26.613281 L 5.324219 28.066406 L 3.386719 28.066406 L 3.386719 26.613281 C 3.386719 26.347656 3.171875 26.128906 2.902344 26.128906 L 1.453125 26.128906 L 1.453125 25.160156 L 2.902344 25.160156 C 3.171875 25.160156 3.386719 24.945312 3.386719 24.675781 L 3.386719 23.386719 L 4.117188 22.414062 C 4.195312 22.3125 4.300781 22.292969 4.355469 22.292969 C 4.410156 22.292969 4.515625 22.308594 4.59375 22.414062 L 5.324219 23.386719 L 5.324219 24.675781 C 5.324219 24.945312 5.539062 25.160156 5.804688 25.160156 L 9.675781 25.160156 C 9.945312 25.160156 10.160156 24.945312 10.160156 24.675781 L 10.160156 23.386719 L 10.890625 22.414062 C 10.96875 22.3125 11.074219 22.292969 11.128906 22.292969 C 11.183594 22.292969 11.289062 22.308594 11.367188 22.414062 L 12.097656 23.386719 L 12.097656 24.675781 C 12.097656 24.945312 12.3125 25.160156 12.582031 25.160156 L 16.933594 25.160156 C 17.203125 25.160156 17.417969 24.945312 17.417969 24.675781 L 17.417969 23.386719 L 18.148438 22.414062 C 18.226562 22.3125 18.332031 22.292969 18.386719 22.292969 C 18.441406 22.292969 18.546875 22.308594 18.625 22.414062 L 19.355469 23.386719 L 19.355469 24.675781 C 19.355469 24.945312 19.570312 25.160156 19.839844 25.160156 L 24.195312 25.160156 C 24.460938 25.160156 24.675781 24.945312 24.675781 24.675781 L 24.675781 23.386719 L 25.40625 22.414062 C 25.484375 22.3125 25.589844 22.292969 25.644531 22.292969 C 25.699219 22.292969 25.804688 22.308594 25.882812 22.414062 L 26.613281 23.386719 L 26.613281 24.675781 C 26.613281 24.945312 26.828125 25.160156 27.097656 25.160156 L 28.546875 25.160156 Z M 28.546875 26.128906 "/></g><path style=" stroke:none;fill-rule:nonzero;fill:rgb(0%,0%,0%);fill-opacity:1;" d="M 8.46875 16.453125 C 8.46875 16.050781 8.140625 15.726562 7.742188 15.726562 C 7.339844 15.726562 7.015625 16.050781 7.015625 16.453125 C 7.015625 16.851562 7.339844 17.175781 7.742188 17.175781 C 8.140625 17.175781 8.46875 16.851562 8.46875 16.453125 Z M 8.46875 16.453125 "/><path style=" stroke:none;fill-rule:nonzero;fill:rgb(0%,0%,0%);fill-opacity:1;" d="M 15.726562 16.453125 C 15.726562 16.050781 15.398438 15.726562 15 15.726562 C 14.601562 15.726562 14.273438 16.050781 14.273438 16.453125 C 14.273438 16.851562 14.601562 17.175781 15 17.175781 C 15.398438 17.175781 15.726562 16.851562 15.726562 16.453125 Z M 15.726562 16.453125 "/><path style=" stroke:none;fill-rule:nonzero;fill:rgb(0%,0%,0%);fill-opacity:1;" d="M 22.984375 16.453125 C 22.984375 16.050781 22.660156 15.726562 22.257812 15.726562 C 21.859375 15.726562 21.53125 16.050781 21.53125 16.453125 C 21.53125 16.851562 21.859375 17.175781 22.257812 17.175781 C 22.660156 17.175781 22.984375 16.851562 22.984375 16.453125 Z M 22.984375 16.453125 "/><path style=" stroke:none;fill-rule:nonzero;fill:rgb(0%,0%,0%);fill-opacity:1;" d="M 17.902344 4.839844 C 17.902344 3.238281 16.601562 1.933594 15 1.933594 C 13.398438 1.933594 12.097656 3.238281 12.097656 4.839844 C 12.097656 6.441406 13.398438 7.742188 15 7.742188 C 16.601562 7.742188 17.902344 6.441406 17.902344 4.839844 Z M 15 6.773438 C 13.933594 6.773438 13.066406 5.90625 13.066406 4.839844 C 13.066406 3.769531 13.933594 2.902344 15 2.902344 C 16.066406 2.902344 16.933594 3.769531 16.933594 4.839844 C 16.933594 5.90625 16.066406 6.773438 15 6.773438 Z M 15 6.773438 "/><path style=" stroke:none;fill-rule:nonzero;fill:rgb(0%,0%,0%);fill-opacity:1;" d="M 14.515625 0 L 15.484375 0 L 15.484375 0.96875 L 14.515625 0.96875 Z M 14.515625 0 "/><path style=" stroke:none;fill-rule:nonzero;fill:rgb(0%,0%,0%);fill-opacity:1;" d="M 14.515625 8.710938 L 15.484375 8.710938 L 15.484375 9.675781 L 14.515625 9.675781 Z M 14.515625 8.710938 "/><path style=" stroke:none;fill-rule:nonzero;fill:rgb(0%,0%,0%);fill-opacity:1;" d="M 18.871094 4.355469 L 19.839844 4.355469 L 19.839844 5.324219 L 18.871094 5.324219 Z M 18.871094 4.355469 "/><path style=" stroke:none;fill-rule:nonzero;fill:rgb(0%,0%,0%);fill-opacity:1;" d="M 10.160156 4.355469 L 11.128906 4.355469 L 11.128906 5.324219 L 10.160156 5.324219 Z M 10.160156 4.355469 "/><path style=" stroke:none;fill-rule:nonzero;fill:rgb(0%,0%,0%);fill-opacity:1;" d="M 17.394531 1.761719 L 18.078125 1.074219 L 18.765625 1.761719 L 18.078125 2.445312 Z M 17.394531 1.761719 "/><path style=" stroke:none;fill-rule:nonzero;fill:rgb(0%,0%,0%);fill-opacity:1;" d="M 11.234375 7.917969 L 11.921875 7.234375 L 12.605469 7.917969 L 11.921875 8.601562 Z M 11.234375 7.917969 "/><path style=" stroke:none;fill-rule:nonzero;fill:rgb(0%,0%,0%);fill-opacity:1;" d="M 17.394531 7.917969 L 18.078125 7.234375 L 18.761719 7.917969 L 18.078125 8.601562 Z M 17.394531 7.917969 "/><path style=" stroke:none;fill-rule:nonzero;fill:rgb(0%,0%,0%);fill-opacity:1;" d="M 11.234375 1.757812 L 11.921875 1.074219 L 12.605469 1.757812 L 11.921875 2.445312 Z M 11.234375 1.757812 "/></g></svg>