<?xml version="1.0" encoding="UTF-8"?><svg xmlns="http://www.w3.org/2000/svg" xmlns:xlink="http://www.w3.org/1999/xlink" contentScriptType="text/ecmascript" width="30pt" zoomAndPan="magnify" contentStyleType="text/css" viewBox="0 0 30 30.000001" height="30.000001pt" preserveAspectRatio="xMidYMid meet" version="1.2"><defs><clipPath xml:id="clip1" id="clip1"><path d="M 0.484375 0 L 29.515625 0 L 29.515625 29.03125 L 0.484375 29.03125 Z M 0.484375 0 "/></clipPath><clipPath xml:id="clip2" id="clip2"><path d="M 8 1.742188 L 22 1.742188 L 22 21 L 8 21 Z M 8 1.742188 "/></clipPath><clipPath xml:id="clip3" id="clip3"><path d="M 0.484375 21 L 29.515625 21 L 29.515625 24 L 0.484375 24 Z M 0.484375 21 "/></clipPath><clipPath xml:id="clip4" id="clip4"><path d="M 0.484375 27.339844 L 29.515625 27.339844 L 29.515625 29.03125 L 0.484375 29.03125 Z M 0.484375 27.339844 "/></clipPath></defs><g xml:id="surface1" id="surface1"><g clip-rule="nonzero" clip-path="url(#clip1)"><path style=" stroke:none;fill-rule:nonzero;fill:rgb(100%,100%,100%);fill-opacity:1;" d="M 0.484375 0 L 29.515625 0 L 29.515625 29.03125 L 0.484375 29.03125 Z M 0.484375 0 "/><path style=" stroke:none;fill-rule:nonzero;fill:rgb(100%,100%,100%);fill-opacity:1;" d="M 0.484375 0 L 29.515625 0 L 29.515625 29.03125 L 0.484375 29.03125 Z M 0.484375 0 "/></g><g clip-rule="nonzero" clip-path="url(#clip2)"><path style=" stroke:none;fill-rule:nonzero;fill:rgb(0%,0%,0%);fill-opacity:1;" d="M 8.882812 10.316406 L 18.746094 10.316406 L 18.746094 14.246094 L 8.882812 14.246094 Z M 8.59375 20.640625 C 8.753906 20.640625 8.882812 20.507812 8.882812 20.347656 L 8.882812 14.835938 L 18.746094 14.835938 L 18.746094 20.347656 C 18.746094 20.507812 18.871094 20.640625 19.03125 20.640625 C 19.191406 20.640625 19.320312 20.507812 19.320312 20.347656 L 19.320312 4.546875 C 19.320312 3.371094 20.253906 2.414062 21.40625 2.414062 C 21.5625 2.414062 21.691406 2.28125 21.691406 2.121094 C 21.691406 1.957031 21.5625 1.828125 21.40625 1.828125 C 19.9375 1.828125 18.746094 3.046875 18.746094 4.546875 L 18.746094 9.730469 L 8.882812 9.730469 L 8.882812 4.546875 C 8.882812 3.371094 9.816406 2.414062 10.96875 2.414062 C 11.128906 2.414062 11.253906 2.28125 11.253906 2.121094 C 11.253906 1.957031 11.128906 1.828125 10.96875 1.828125 C 9.503906 1.828125 8.308594 3.046875 8.308594 4.546875 L 8.308594 20.347656 C 8.308594 20.507812 8.4375 20.640625 8.59375 20.640625 "/></g><g clip-rule="nonzero" clip-path="url(#clip3)"><path style=" stroke:none;fill-rule:nonzero;fill:rgb(0%,0%,0%);fill-opacity:1;" d="M 0.773438 23.867188 C 1.710938 23.867188 2.59375 23.441406 3.191406 22.703125 C 3.394531 22.445312 3.839844 22.445312 4.042969 22.703125 C 4.640625 23.441406 5.523438 23.867188 6.460938 23.867188 C 7.402344 23.867188 8.285156 23.441406 8.882812 22.703125 C 9.085938 22.445312 9.527344 22.445312 9.734375 22.703125 C 10.332031 23.441406 11.214844 23.867188 12.152344 23.867188 C 13.09375 23.867188 13.976562 23.441406 14.574219 22.703125 C 14.675781 22.574219 14.832031 22.5 15 22.5 C 15.167969 22.5 15.324219 22.574219 15.425781 22.703125 C 16.023438 23.441406 16.90625 23.867188 17.847656 23.867188 C 18.785156 23.867188 19.664062 23.441406 20.265625 22.703125 C 20.367188 22.574219 20.523438 22.5 20.691406 22.5 C 20.859375 22.5 21.015625 22.574219 21.117188 22.703125 C 21.714844 23.441406 22.597656 23.867188 23.539062 23.867188 C 24.476562 23.867188 25.359375 23.441406 25.957031 22.703125 C 26.058594 22.574219 26.214844 22.5 26.382812 22.5 C 26.550781 22.5 26.707031 22.574219 26.808594 22.703125 C 27.40625 23.441406 28.289062 23.867188 29.226562 23.867188 C 29.386719 23.867188 29.515625 23.734375 29.515625 23.574219 C 29.515625 23.410156 29.386719 23.277344 29.226562 23.277344 C 28.460938 23.277344 27.742188 22.933594 27.253906 22.328125 C 27.042969 22.0625 26.722656 21.914062 26.382812 21.914062 C 26.042969 21.914062 25.722656 22.0625 25.511719 22.328125 C 25.023438 22.929688 24.304688 23.277344 23.539062 23.277344 C 22.769531 23.277344 22.050781 22.929688 21.5625 22.328125 C 21.351562 22.0625 21.035156 21.914062 20.691406 21.914062 C 20.351562 21.914062 20.03125 22.0625 19.820312 22.328125 C 19.332031 22.933594 18.613281 23.277344 17.847656 23.277344 C 17.078125 23.277344 16.359375 22.929688 15.871094 22.328125 C 15.660156 22.0625 15.339844 21.914062 15 21.914062 C 14.660156 21.914062 14.34375 22.0625 14.128906 22.328125 C 13.640625 22.933594 12.921875 23.277344 12.152344 23.277344 C 11.386719 23.277344 10.667969 22.929688 10.179688 22.328125 C 9.753906 21.800781 8.863281 21.800781 8.4375 22.328125 C 7.949219 22.929688 7.230469 23.277344 6.460938 23.277344 C 5.695312 23.277344 4.976562 22.929688 4.488281 22.328125 C 4.0625 21.800781 3.171875 21.800781 2.746094 22.328125 C 2.257812 22.929688 1.539062 23.277344 0.773438 23.277344 C 0.613281 23.277344 0.484375 23.410156 0.484375 23.574219 C 0.484375 23.734375 0.613281 23.867188 0.773438 23.867188 "/></g><g clip-rule="nonzero" clip-path="url(#clip4)"><path style=" stroke:none;fill-rule:nonzero;fill:rgb(0%,0%,0%);fill-opacity:1;" d="M 29.226562 28.953125 C 28.460938 28.953125 27.742188 28.605469 27.253906 28 C 27.042969 27.734375 26.722656 27.585938 26.382812 27.585938 C 26.042969 27.585938 25.722656 27.734375 25.511719 28 C 25.023438 28.605469 24.304688 28.953125 23.539062 28.953125 C 22.769531 28.953125 22.050781 28.605469 21.5625 28 C 21.351562 27.734375 21.035156 27.585938 20.691406 27.585938 C 20.351562 27.585938 20.03125 27.734375 19.820312 28 C 19.332031 28.605469 18.613281 28.953125 17.847656 28.953125 C 17.078125 28.953125 16.359375 28.605469 15.871094 28 C 15.660156 27.734375 15.339844 27.585938 15 27.585938 C 14.660156 27.585938 14.34375 27.734375 14.128906 28 C 13.640625 28.605469 12.921875 28.953125 12.152344 28.953125 C 11.386719 28.953125 10.667969 28.605469 10.179688 28 C 9.753906 27.472656 8.863281 27.472656 8.4375 28 C 7.949219 28.605469 7.230469 28.953125 6.460938 28.953125 C 5.695312 28.953125 4.976562 28.605469 4.488281 28 C 4.0625 27.472656 3.171875 27.472656 2.746094 28 C 2.257812 28.605469 1.539062 28.953125 0.773438 28.953125 C 0.613281 28.953125 0.484375 29.082031 0.484375 29.246094 C 0.484375 29.410156 0.613281 29.539062 0.773438 29.539062 C 1.710938 29.539062 2.59375 29.113281 3.191406 28.371094 C 3.394531 28.121094 3.839844 28.117188 4.042969 28.371094 C 4.640625 29.113281 5.523438 29.539062 6.460938 29.539062 C 7.402344 29.539062 8.285156 29.113281 8.882812 28.371094 C 9.085938 28.121094 9.527344 28.117188 9.734375 28.371094 C 10.332031 29.113281 11.214844 29.539062 12.152344 29.539062 C 13.09375 29.539062 13.976562 29.113281 14.574219 28.371094 C 14.675781 28.246094 14.832031 28.171875 15 28.171875 C 15.167969 28.171875 15.324219 28.246094 15.425781 28.371094 C 16.023438 29.113281 16.90625 29.539062 17.847656 29.539062 C 18.785156 29.539062 19.664062 29.113281 20.265625 28.371094 C 20.367188 28.246094 20.523438 28.171875 20.691406 28.171875 C 20.859375 28.171875 21.015625 28.246094 21.117188 28.371094 C 21.714844 29.113281 22.597656 29.539062 23.539062 29.539062 C 24.476562 29.539062 25.359375 29.113281 25.957031 28.371094 C 26.058594 28.246094 26.214844 28.171875 26.382812 28.171875 C 26.550781 28.171875 26.707031 28.246094 26.808594 28.371094 C 27.40625 29.113281 28.289062 29.539062 29.226562 29.539062 C 29.386719 29.539062 29.515625 29.410156 29.515625 29.246094 C 29.515625 29.082031 29.386719 28.953125 29.226562 28.953125 "/></g></g></svg>